<svg id="visual" viewBox="0 0 900 600" width="900" height="600" xmlns="http://www.w3.org/2000/svg" xmlns:xlink="http://www.w3.org/1999/xlink" version="1.1"><rect x="0" y="0" width="900" height="600" fill="#f9fafc"></rect><defs><linearGradient id="grad1_0" x1="33.3%" y1="0%" x2="100%" y2="100%"><stop offset="20%" stop-color="#f9fafc" stop-opacity="1"></stop><stop offset="80%" stop-color="#f9fafc" stop-opacity="1"></stop></linearGradient></defs><defs><linearGradient id="grad2_0" x1="0%" y1="0%" x2="66.7%" y2="100%"><stop offset="20%" stop-color="#f9fafc" stop-opacity="1"></stop><stop offset="80%" stop-color="#f9fafc" stop-opacity="1"></stop></linearGradient></defs><g transform="translate(900, 0)"><path d="M0 486.7C-47.5 441.6 -95.1 396.5 -157.3 379.7C-219.5 362.9 -296.4 374.3 -344.2 344.2C-392 314 -410.7 242.2 -429.6 177.9C-448.5 113.6 -467.6 56.8 -486.7 0L0 0Z" fill="#e5efff"></path></g><g transform="translate(0, 600)"><path d="M0 -486.7C66 -463.5 132.1 -440.3 162.3 -391.7C192.4 -343.2 186.7 -269.4 238.3 -238.3C289.9 -207.2 398.7 -218.9 449.7 -186.3C500.7 -153.7 493.7 -76.8 486.7 0L0 0Z" fill="#e5efff"></path></g></svg>