<?xml version="1.0" standalone="no"?>
<!DOCTYPE svg PUBLIC "-//W3C//DTD SVG 20010904//EN"
 "http://www.w3.org/TR/2001/REC-SVG-20010904/DTD/svg10.dtd">
<svg version="1.0" xmlns="http://www.w3.org/2000/svg"
 width="1280.000000pt" height="1124.000000pt" viewBox="0 0 1280.000000 1124.000000"
 preserveAspectRatio="xMidYMid meet">
<g transform="translate(0.000000,1124.000000) scale(0.100000,-0.100000)"
fill="#000000" stroke="none">
<path d="M9100 11123 c0 -72 -4 -113 -12 -121 -9 -9 -90 -12 -305 -12 l-293 0
0 -25 0 -25 325 0 326 0 -3 142 c-3 127 -5 143 -20 146 -16 3 -18 -7 -18 -105z"/>
<path d="M8490 10766 l0 -26 238 0 c264 -1 313 -7 348 -42 48 -48 41 -138 -15
-175 -23 -16 -58 -19 -296 -23 l-270 -5 0 -25 0 -25 275 0 c259 0 277 1 310
20 51 31 73 74 73 150 0 76 -22 119 -73 150 -33 19 -55 20 -312 23 l-278 3 0
-25z"/>
<path d="M700 10440 l0 -30 325 0 c185 0 325 -4 325 -9 0 -5 -145 -67 -322
-138 l-323 -129 0 -45 0 -44 393 -3 392 -2 0 30 0 30 -336 0 c-240 0 -335 3
-332 11 2 6 78 40 168 75 91 36 240 95 333 131 l167 66 0 43 0 44 -395 0 -395
0 0 -30z"/>
<path d="M8492 10198 l3 -143 320 0 320 0 3 27 3 27 -153 3 -153 3 -5 105 c-5
97 -7 105 -25 105 -18 0 -20 -8 -25 -105 l-5 -105 -115 0 -115 0 -3 113 -3
112 -25 0 -25 0 3 -142z"/>
<path d="M4952 9964 c3 -24 17 -32 148 -84 79 -32 146 -62 148 -68 1 -5 -64
-36 -145 -68 -137 -55 -148 -61 -151 -86 -2 -16 -1 -28 3 -28 3 0 85 34 182
75 l177 75 123 0 123 0 0 24 c0 24 -1 24 -122 28 l-123 3 -178 78 c-99 42
-181 77 -184 77 -2 0 -3 -12 -1 -26z"/>
<path d="M8893 9921 c-44 -20 -73 -56 -131 -159 -38 -67 -73 -92 -130 -92 -59
0 -102 38 -102 92 0 55 15 77 66 100 54 23 57 51 7 56 -42 4 -99 -45 -114
-100 -36 -135 85 -243 217 -193 49 18 71 45 134 156 19 34 49 70 65 81 36 22
115 24 154 4 48 -26 66 -98 36 -155 -13 -26 -67 -61 -94 -61 -6 0 -11 -11 -11
-25 0 -21 5 -25 28 -25 37 0 88 33 112 72 27 44 27 140 1 188 -38 72 -150 100
-238 61z"/>
<path d="M1090 9832 l-385 -97 -3 -44 c-2 -24 0 -47 5 -52 8 -8 744 -189 770
-189 10 0 13 10 11 32 l-3 32 -123 29 -123 29 3 111 3 112 122 30 123 30 0 38
c0 20 -3 37 -7 37 -5 -1 -181 -44 -393 -98z m90 -151 c0 -36 -4 -72 -9 -80 -7
-11 -38 -7 -177 23 -172 38 -221 52 -211 63 4 3 89 25 189 48 213 50 208 51
208 -54z"/>
<path d="M5520 9451 c0 -90 -3 -110 -16 -115 -9 -3 -60 -6 -114 -6 -54 0 -105
3 -114 6 -13 5 -16 24 -16 105 0 92 -1 99 -20 99 -19 0 -20 -7 -20 -93 0 -59
-4 -97 -12 -105 -8 -8 -46 -12 -103 -12 -57 0 -95 4 -103 12 -8 8 -12 47 -12
110 0 92 -1 98 -20 98 -20 0 -20 -5 -18 -132 l3 -133 295 -3 c268 -2 296 -1
308 15 13 18 18 217 6 247 -3 9 -15 16 -25 16 -17 0 -19 -9 -19 -109z"/>
<path d="M8885 9481 c-42 -25 -81 -73 -115 -141 -46 -91 -103 -124 -175 -100
-45 15 -65 44 -65 95 0 45 20 71 75 96 19 9 30 22 30 34 0 16 -6 20 -33 19
-69 -4 -116 -63 -116 -149 0 -98 56 -155 152 -155 88 0 131 34 193 151 40 75
76 106 134 114 53 8 113 -16 133 -55 32 -61 -7 -151 -72 -168 -24 -6 -32 -15
-34 -35 -4 -34 17 -36 78 -4 56 28 80 73 80 147 0 67 -23 117 -69 147 -45 30
-151 32 -196 4z"/>
<path d="M707 9323 c-4 -3 -7 -19 -7 -35 l0 -28 395 0 395 0 0 35 0 35 -388 0
c-214 0 -392 -3 -395 -7z"/>
<path d="M9360 9075 l0 -235 55 0 54 0 3 83 3 82 348 3 347 2 0 65 0 65 -347
2 -348 3 -3 83 -3 82 -54 0 -55 0 0 -235z"/>
<path d="M4952 9118 l3 -23 240 0 c151 0 241 -4 244 -10 2 -5 -107 -54 -243
-108 l-246 -99 0 -34 0 -34 305 0 c298 0 305 0 305 20 0 19 -7 20 -261 20
-191 0 -260 3 -257 11 2 7 119 57 260 112 199 77 257 104 261 119 13 48 15 48
-310 48 l-304 0 3 -22z"/>
<path d="M794 9096 c-122 -57 -140 -228 -33 -319 78 -67 251 -98 443 -79 171
17 256 57 285 135 16 40 14 143 -3 175 -31 59 -112 112 -171 112 -22 0 -25 -4
-25 -33 0 -31 3 -34 46 -45 68 -18 104 -59 104 -117 0 -113 -95 -155 -349
-155 -194 0 -289 30 -325 103 -36 74 2 146 88 169 43 11 46 14 46 45 0 29 -3
33 -27 33 -16 0 -51 -11 -79 -24z"/>
<path d="M9100 8968 c0 -75 -4 -118 -12 -126 -8 -8 -51 -12 -128 -12 -77 0
-120 4 -128 12 -8 8 -12 48 -12 115 0 96 -1 103 -20 103 -19 0 -20 -7 -20 -96
0 -134 0 -134 -118 -134 -53 0 -102 4 -109 8 -8 5 -13 45 -15 117 -3 102 -4
110 -23 110 -19 0 -20 -8 -23 -142 l-3 -143 326 0 326 0 -3 147 c-3 131 -5
148 -20 151 -16 3 -18 -7 -18 -110z"/>
<path d="M9360 8685 l0 -55 282 0 c210 0 279 -3 271 -11 -7 -7 -132 -55 -280
-109 l-268 -98 -3 -76 -3 -76 406 0 405 0 0 55 0 55 -296 0 c-216 0 -295 3
-292 11 2 7 134 58 293 114 l290 102 3 72 3 71 -406 0 -405 0 0 -55z"/>
<path d="M7612 8678 c2 -18 27 -32 141 -77 75 -30 137 -60 137 -67 0 -6 -62
-37 -137 -67 -124 -49 -138 -57 -141 -81 -2 -14 -1 -26 1 -26 3 0 84 34 180
75 l176 75 110 0 c102 0 111 1 111 19 0 27 -18 31 -134 31 l-102 0 -163 70
c-89 39 -167 70 -172 70 -6 0 -9 -10 -7 -22z"/>
<path d="M5125 8679 c-121 -18 -185 -75 -185 -167 0 -82 41 -127 144 -157 85
-25 322 -18 386 11 71 32 100 74 100 141 0 72 -25 114 -86 142 -76 36 -228 49
-359 30z m304 -65 c68 -20 101 -52 101 -97 0 -46 -30 -82 -88 -104 -37 -14
-75 -18 -187 -18 -112 0 -150 4 -187 18 -133 51 -110 179 37 210 55 12 274 6
324 -9z"/>
<path d="M8575 8646 c-76 -33 -111 -125 -80 -204 35 -86 112 -120 291 -129
132 -7 232 8 291 43 59 34 76 71 71 150 -3 54 -9 69 -33 95 -32 34 -81 59
-115 59 -14 0 -20 -7 -20 -23 0 -18 11 -28 50 -44 63 -27 88 -73 70 -128 -23
-71 -127 -101 -324 -93 -101 4 -131 9 -170 27 -103 50 -102 152 1 197 39 17
53 29 53 44 0 24 -38 27 -85 6z"/>
<path d="M702 8508 l3 -33 390 0 390 0 3 33 3 32 -396 0 -396 0 3 -32z"/>
<path d="M8148 8298 l-3 -103 -268 -3 -268 -2 3 -23 3 -22 285 0 285 0 3 128
c2 121 2 127 -17 127 -19 0 -21 -8 -23 -102z"/>
<path d="M704 8286 c-3 -8 -4 -23 -2 -33 3 -17 23 -18 313 -20 171 -1 317 -2
325 -2 37 -2 -33 -34 -315 -146 -165 -65 -306 -123 -313 -128 -8 -6 -12 -26
-10 -51 l3 -41 393 -3 392 -2 0 36 0 36 -330 -3 c-215 -3 -331 -1 -332 6 -1 6
136 64 303 130 401 158 361 137 357 188 l-3 42 -388 3 c-331 2 -388 0 -393
-12z"/>
<path d="M4957 8213 c-4 -3 -7 -23 -7 -44 0 -45 -23 -36 290 -109 112 -26 206
-52 208 -58 4 -13 -4 -15 -158 -47 -69 -14 -173 -37 -232 -51 l-108 -26 0 -44
0 -44 305 0 305 0 0 26 0 27 -258 -5 c-269 -5 -329 0 -257 21 22 6 145 33 274
60 131 28 237 55 242 62 14 23 -10 47 -58 58 -138 30 -450 102 -466 107 -55
17 20 24 259 24 l264 0 0 25 0 25 -298 0 c-164 0 -302 -3 -305 -7z"/>
<path d="M4551 8192 c-19 -9 -43 -28 -53 -42 -39 -54 -46 -207 -13 -286 29
-71 114 -96 183 -54 28 17 33 18 38 5 4 -8 12 -15 20 -15 11 0 14 22 14 105
l0 105 -59 0 c-69 0 -92 -17 -29 -22 l43 -3 0 -63 c0 -57 -3 -66 -28 -88 -53
-46 -123 -20 -148 54 -20 58 -15 194 8 239 37 72 124 79 161 13 19 -33 49 -36
44 -5 -5 28 -22 46 -59 62 -44 18 -81 16 -122 -5z"/>
<path d="M8580 8199 c-104 -42 -130 -179 -49 -260 50 -50 115 -69 255 -76 132
-7 232 8 291 43 59 34 76 71 71 150 -3 54 -9 69 -33 95 -32 34 -81 59 -115 59
-14 0 -20 -7 -20 -23 0 -18 11 -28 50 -44 40 -17 54 -29 66 -59 24 -56 4 -100
-61 -134 -47 -24 -57 -25 -215 -25 -153 0 -168 2 -213 24 -104 51 -104 151 1
198 39 17 53 28 50 41 -4 20 -42 26 -78 11z"/>
<path d="M2482 7998 c3 -173 5 -203 18 -203 12 0 16 20 20 100 l5 100 85 0 85
0 3 -95 c3 -89 12 -117 34 -104 4 3 8 95 8 205 0 186 -1 200 -17 197 -15 -3
-19 -18 -23 -88 l-5 -85 -85 0 -85 0 -3 88 c-3 79 -5 87 -23 87 -19 0 -19 -6
-17 -202z"/>
<path d="M2862 8024 l3 -176 33 -29 c28 -25 40 -29 90 -29 123 0 142 34 142
253 0 150 -1 157 -20 157 -19 0 -20 -7 -20 -160 0 -95 -4 -169 -11 -183 -23
-50 -100 -62 -146 -23 l-28 24 -3 171 c-3 163 -4 171 -23 171 -20 0 -20 -6
-17 -176z"/>
<path d="M3246 8184 c-11 -27 -7 -354 5 -375 22 -42 29 -3 29 162 0 121 3 170
11 167 6 -2 47 -78 90 -168 43 -90 85 -167 93 -172 8 -4 21 -5 30 -2 14 5 16
33 16 205 0 192 -1 199 -20 199 -19 0 -20 -7 -20 -165 0 -91 -3 -165 -8 -165
-4 0 -44 74 -90 165 -72 145 -85 165 -106 165 -13 0 -27 -7 -30 -16z"/>
<path d="M3590 8191 c0 -6 24 -11 53 -13 l52 -3 5 -190 c4 -160 7 -190 20
-190 13 0 16 30 20 190 l5 190 53 3 c28 2 52 7 52 13 0 5 -55 9 -130 9 -75 0
-130 -4 -130 -9z"/>
<path d="M3932 7998 c3 -173 5 -203 18 -203 13 0 15 30 18 203 2 198 2 202
-18 202 -20 0 -20 -4 -18 -202z"/>
<path d="M4090 8001 c0 -110 4 -202 9 -205 25 -16 32 27 29 176 -2 95 1 155 7
158 6 3 48 -71 95 -165 68 -135 89 -170 105 -170 19 0 20 8 23 203 2 175 0
202 -13 202 -13 0 -15 -24 -15 -165 0 -104 -4 -165 -10 -165 -6 0 -47 74 -92
165 -77 154 -85 165 -110 165 l-28 0 0 -199z"/>
<path d="M2194 8176 c-2 -6 -5 -51 -6 -101 l-3 -90 -77 -3 -78 -3 0 80 c0 95
-5 111 -35 111 -30 0 -35 -16 -35 -111 l0 -80 -67 3 -68 3 -5 95 c-5 93 -5 95
-30 95 l-25 0 0 -140 0 -140 243 -3 242 -2 0 144 0 144 -26 5 c-14 2 -27 0
-30 -7z"/>
<path d="M10058 8009 l-3 -144 -125 0 -125 0 -3 128 -3 127 -54 0 -54 0 -3
-127 -3 -128 -105 0 -105 0 -3 133 -3 132 -54 0 -55 0 0 -195 0 -195 405 0
405 0 0 194 c0 107 -3 197 -7 199 -5 3 -29 8 -55 12 l-47 7 -3 -143z"/>
<path d="M7675 8020 c-50 -33 -65 -73 -65 -177 l0 -93 291 0 290 0 -3 23 c-3
21 -8 22 -128 27 l-125 5 -5 75 c-7 86 -25 120 -75 144 -48 23 -142 21 -180
-4z m135 -30 c51 0 100 -93 85 -162 l-7 -28 -119 0 -119 0 0 64 c0 53 4 70 23
91 22 26 79 47 105 39 8 -2 22 -4 32 -4z"/>
<path d="M1760 7670 c0 -136 1 -140 23 -145 12 -3 121 -4 242 -3 l220 3 3 43
3 42 -104 0 c-122 0 -117 -5 -117 111 l0 80 -27 -3 c-28 -3 -28 -4 -33 -93
l-5 -90 -70 0 -70 0 -3 98 -3 97 -29 0 -30 0 0 -140z"/>
<path d="M6900 7715 l0 -35 88 0 c55 0 92 -4 100 -12 13 -13 16 -85 6 -112 -5
-13 -24 -16 -100 -16 l-94 0 0 -35 0 -35 240 0 240 0 0 35 0 34 -107 3 -108 3
-3 59 c-2 41 1 62 10 67 7 5 57 9 111 9 l97 0 0 35 0 35 -240 0 -240 0 0 -35z"/>
<path d="M8497 7734 c-4 -4 -7 -16 -7 -26 0 -17 13 -18 218 -18 260 0 336 -9
370 -43 47 -48 36 -147 -21 -179 -16 -9 -99 -14 -292 -18 l-270 -5 0 -25 0
-25 275 0 c259 0 277 1 310 20 50 30 72 74 72 145 0 77 -25 127 -78 154 -36
19 -59 21 -304 24 -146 2 -269 0 -273 -4z"/>
<path d="M10428 7695 c-36 -20 -48 -44 -48 -98 0 -92 73 -131 247 -129 111 0
181 22 202 60 18 34 13 97 -9 125 l-20 26 20 6 c49 16 12 25 -100 25 l-120 0
0 -55 c0 -30 5 -55 10 -55 6 0 10 13 10 29 0 43 21 55 86 48 65 -7 101 -27
110 -63 17 -66 -40 -104 -166 -112 -107 -6 -189 10 -220 43 -43 45 -23 115 36
129 26 7 28 29 3 33 -8 1 -26 -4 -41 -12z"/>
<path d="M702 7648 l3 -33 168 -3 168 -2 -3 -138 -3 -137 -168 -3 -168 -2 3
-33 3 -32 393 -3 392 -2 0 35 0 35 -185 0 c-172 0 -185 1 -195 19 -12 23 -14
230 -2 248 6 9 60 13 192 15 l185 3 3 33 3 32 -396 0 -396 0 3 -32z"/>
<path d="M7691 7632 c-64 -32 -76 -60 -76 -175 l0 -102 285 0 285 0 3 23 c3
22 2 22 -115 22 -79 0 -123 4 -131 12 -7 7 -12 39 -12 74 0 102 -60 164 -160
164 -25 0 -60 -8 -79 -18z m149 -47 c36 -18 45 -36 54 -97 12 -83 4 -89 -127
-86 l-112 3 -3 54 c-4 65 12 107 47 126 34 19 105 19 141 0z"/>
<path d="M3396 7550 c-71 -46 -103 -162 -93 -335 6 -112 25 -176 64 -218 51
-53 141 -60 197 -16 41 32 66 92 78 184 22 172 -13 336 -81 382 -44 30 -123
31 -165 3z m132 -36 c35 -24 51 -65 62 -161 11 -99 -1 -247 -24 -291 -38 -74
-108 -89 -157 -34 -15 17 -34 51 -40 74 -17 56 -17 270 0 327 25 86 100 127
159 85z"/>
<path d="M4570 7552 c-48 -23 -72 -73 -67 -138 5 -68 31 -102 116 -148 93 -52
122 -83 128 -140 7 -57 -11 -102 -48 -121 -61 -32 -127 -9 -152 54 -18 45 -28
54 -51 45 -18 -7 -13 -42 12 -85 36 -63 138 -86 212 -47 61 31 82 74 78 154
-5 79 -34 118 -120 163 -81 43 -116 76 -124 118 -13 70 23 123 86 123 45 0 76
-22 95 -66 14 -35 41 -45 51 -20 9 24 -24 85 -58 106 -41 25 -111 26 -158 2z"/>
<path d="M4984 7561 c-32 -14 -71 -66 -78 -105 -16 -84 25 -144 145 -207 76
-41 99 -75 99 -146 0 -75 -30 -108 -98 -108 -58 0 -97 28 -107 75 -3 16 -13
31 -22 34 -60 23 -32 -88 34 -131 40 -26 142 -25 179 3 52 38 67 69 67 131 0
91 -29 133 -133 190 -86 48 -98 59 -110 104 -8 29 -7 46 4 73 17 40 42 56 88
56 42 -1 64 -17 83 -64 11 -25 22 -36 36 -36 19 0 21 4 16 37 -4 22 -19 49
-36 67 -25 25 -39 30 -88 33 -32 1 -67 -1 -79 -6z"/>
<path d="M5600 7563 c-87 -32 -135 -196 -113 -387 12 -102 36 -161 79 -195 56
-44 146 -37 197 16 40 43 58 106 64 228 11 231 -44 346 -166 344 -25 0 -53 -3
-61 -6z m112 -53 c38 -30 58 -92 65 -199 9 -161 -21 -277 -79 -307 -60 -31
-119 7 -144 93 -19 65 -21 257 -4 326 24 94 101 136 162 87z"/>
<path d="M9360 7510 l0 -60 405 0 405 0 0 60 0 60 -405 0 -405 0 0 -60z"/>
<path d="M2490 7259 l0 -300 23 3 c21 3 22 8 27 133 l5 130 75 6 c41 3 84 10
95 16 103 57 110 234 12 293 -26 16 -50 20 -134 20 l-103 0 0 -301z m221 232
c25 -26 29 -37 29 -86 0 -102 -39 -139 -141 -133 l-54 3 -3 123 -3 122 71 0
c66 0 74 -2 101 -29z"/>
<path d="M2900 7259 l0 -300 23 3 c21 3 22 7 25 138 2 92 6 137 15 142 18 11
79 10 116 -3 45 -16 61 -54 61 -142 0 -109 7 -137 36 -137 23 0 23 0 18 103
-7 130 -9 139 -40 176 l-26 31 31 30 c66 67 50 207 -30 247 -14 8 -65 13 -126
13 l-103 0 0 -301z m201 251 c61 -33 64 -165 4 -204 -16 -11 -47 -16 -90 -16
l-65 0 0 115 0 115 66 0 c36 0 74 -5 85 -10z"/>
<path d="M3770 7259 l0 -300 23 3 c21 3 22 6 25 146 l3 142 95 0 c78 0 96 3
101 16 10 26 -16 34 -110 34 l-88 0 3 108 3 107 103 3 c94 2 102 4 102 22 0
19 -7 20 -130 20 l-130 0 0 -301z"/>
<path d="M4130 7260 l0 -300 134 0 c113 0 135 2 140 16 3 9 6 18 6 20 0 2 -46
4 -102 4 -57 0 -109 4 -116 8 -9 7 -12 39 -10 128 l3 119 100 5 c80 4 100 8
100 20 0 12 -20 16 -100 20 l-100 5 0 105 0 105 105 5 c89 4 105 8 108 23 3
15 -8 17 -132 17 l-136 0 0 -300z"/>
<path d="M5315 7547 c-3 -7 -4 -140 -3 -297 l3 -285 23 -3 22 -3 0 300 c0 296
0 301 -20 301 -11 0 -23 -6 -25 -13z"/>
<path d="M5950 7261 c0 -294 0 -301 20 -301 19 0 20 7 20 256 0 200 3 255 12
252 7 -3 58 -118 112 -257 l100 -252 30 3 31 3 3 298 2 297 -26 0 -26 0 2
-232 c1 -128 1 -240 1 -247 -2 -34 -27 18 -116 240 l-93 234 -36 3 -36 3 0
-300z"/>
<path d="M1760 7360 l0 -40 245 0 245 0 0 40 0 40 -245 0 -245 0 0 -40z"/>
<path d="M6944 7371 c-40 -24 -58 -69 -51 -127 10 -94 81 -129 262 -129 138 1
182 14 215 67 16 25 20 45 17 86 -4 58 -28 92 -78 112 -67 28 -82 -25 -19 -65
31 -20 40 -31 40 -54 0 -44 -29 -62 -120 -74 -94 -12 -211 1 -241 29 -34 31
-14 104 29 104 15 0 35 38 28 56 -8 20 -45 17 -82 -5z"/>
<path d="M10387 7364 c-19 -19 21 -24 184 -24 124 0 180 -3 177 -11 -2 -6 -84
-43 -183 -82 -149 -60 -180 -75 -180 -92 0 -19 8 -20 228 -23 181 -2 228 0
225 10 -4 10 -51 14 -191 16 -103 1 -187 6 -187 11 0 5 84 42 188 83 159 62
187 77 190 96 l3 22 -224 0 c-123 0 -227 -3 -230 -6z"/>
<path d="M10060 7215 l0 -135 -347 -2 -348 -3 -3 -62 -3 -63 406 0 405 0 0
194 c0 192 0 194 -22 200 -13 3 -38 6 -55 6 l-33 0 0 -135z"/>
<path d="M8907 7266 c-49 -18 -73 -40 -105 -96 -80 -142 -99 -160 -168 -160
-66 0 -103 33 -104 93 0 54 15 76 66 99 58 25 58 54 1 52 -105 -3 -153 -161
-75 -249 36 -42 86 -59 145 -51 65 9 96 36 157 140 42 71 63 97 90 110 44 21
110 21 146 -1 80 -47 61 -177 -30 -204 -35 -11 -40 -16 -40 -41 0 -26 2 -28
28 -22 87 20 132 78 132 169 0 67 -21 110 -71 147 -34 25 -123 33 -172 14z"/>
<path d="M7880 7192 l-265 -67 -3 -37 c-2 -21 0 -38 3 -38 4 0 129 -29 277
-65 149 -36 277 -65 284 -65 8 0 14 9 14 20 0 13 -9 22 -27 26 -101 23 -149
37 -155 47 -13 20 -9 144 5 155 7 6 48 19 92 29 68 16 80 22 83 41 3 17 -1 22
-20 21 -13 0 -142 -30 -288 -67z m78 -105 c3 -64 2 -67 -20 -67 -43 1 -259 55
-259 65 -1 10 234 75 261 72 11 -2 16 -19 18 -70z"/>
<path d="M2195 7228 c-2 -7 -6 -51 -7 -98 l-3 -85 -212 -3 -213 -2 0 -40 0
-40 245 0 246 0 -3 138 c-3 134 -4 137 -26 140 -12 2 -24 -3 -27 -10z"/>
<path d="M822 7111 c-63 -22 -89 -44 -113 -96 -35 -77 -19 -169 41 -226 62
-59 139 -80 310 -86 243 -9 364 24 416 113 23 39 26 53 22 118 -3 61 -8 79
-30 108 -28 37 -88 71 -145 83 -32 6 -33 6 -33 -29 0 -33 3 -36 42 -47 23 -6
57 -26 75 -44 28 -28 33 -40 33 -80 0 -40 -5 -52 -33 -80 -54 -54 -124 -69
-307 -69 -177 0 -247 14 -305 65 -79 70 -41 186 68 208 28 6 32 11 35 44 4 43
0 44 -76 18z"/>
<path d="M6960 7023 c-49 -25 -60 -54 -60 -160 l0 -93 240 0 240 0 0 30 0 30
-89 0 c-115 0 -121 3 -121 51 0 61 25 79 109 79 89 0 101 5 101 42 l0 30 -94
-4 c-72 -2 -98 -7 -113 -20 -26 -23 -42 -23 -69 3 -31 30 -99 35 -144 12z
m124 -74 c21 -16 26 -29 26 -64 0 -50 -8 -55 -84 -55 -61 0 -76 12 -76 57 0
70 78 106 134 62z"/>
<path d="M10390 7010 c-38 -24 10 -30 226 -28 187 3 219 5 219 18 0 13 -32 15
-215 17 -124 2 -221 -1 -230 -7z"/>
<path d="M10384 6897 c-10 -28 1 -220 14 -225 8 -2 12 10 12 40 0 24 5 49 12
56 9 9 71 12 216 12 158 0 203 3 200 13 -4 9 -59 13 -214 17 l-209 5 -3 48
c-3 45 -17 62 -28 34z"/>
<path d="M9517 6829 c-110 -26 -167 -99 -167 -214 0 -177 128 -255 421 -255
155 0 233 12 300 46 84 42 113 101 107 218 -2 58 -9 81 -30 113 -28 43 -101
85 -165 97 l-33 6 0 -64 0 -64 37 -7 c78 -14 116 -92 73 -148 -40 -50 -96 -62
-300 -62 -170 0 -189 2 -233 22 -55 26 -81 71 -68 119 8 33 63 74 97 74 23 0
24 3 24 65 0 70 1 69 -63 54z"/>
<path d="M4036 6735 c-122 -43 -184 -155 -206 -372 -19 -184 4 -392 54 -491
48 -95 118 -132 248 -132 124 0 205 55 248 169 10 25 20 62 22 81 l3 35 -73 0
-73 0 -19 -55 c-24 -69 -58 -100 -112 -100 -32 0 -47 7 -73 33 -48 48 -65 135
-65 335 0 238 25 336 94 369 71 33 139 -6 161 -94 l12 -48 74 0 74 0 -4 40
c-9 108 -81 207 -169 233 -52 16 -148 14 -196 -3z"/>
<path d="M5710 6741 c-156 -48 -220 -196 -220 -511 0 -284 44 -410 164 -466
75 -35 192 -34 264 2 77 38 137 129 144 219 l3 40 -74 0 -74 0 -12 -50 c-24
-93 -113 -136 -178 -85 -51 40 -69 116 -75 305 -7 260 19 374 94 410 72 34
137 -4 159 -92 l12 -48 74 0 74 0 -3 44 c-6 98 -76 196 -161 226 -45 16 -148
19 -191 6z"/>
<path d="M7649 6735 c-49 -26 -64 -76 -64 -210 0 -135 12 -173 65 -200 62 -32
147 -8 174 50 22 46 20 55 -11 55 -20 -1 -34 -10 -48 -33 -24 -38 -63 -47 -88
-19 -25 27 -40 125 -32 202 10 95 26 120 78 120 21 0 32 -8 45 -30 12 -22 24
-30 45 -30 15 0 27 5 27 11 0 26 -33 77 -56 88 -34 15 -103 13 -135 -4z"/>
<path d="M7915 6738 c-3 -8 -4 -103 -3 -213 l3 -200 108 -3 107 -3 0 25 c0 24
-3 25 -72 28 l-73 3 -5 185 -5 185 -28 3 c-16 2 -29 -2 -32 -10z"/>
<path d="M8195 6728 c-3 -13 -4 -108 -3 -213 l3 -190 110 0 c106 0 110 1 113
22 3 21 -1 22 -75 25 l-78 3 0 70 0 70 68 3 c63 3 67 4 67 27 0 23 -4 24 -67
27 l-68 3 -3 54 c-4 66 2 71 86 71 59 0 62 1 62 25 l0 25 -105 0 c-100 0 -105
-1 -110 -22z"/>
<path d="M8497 6743 c-4 -3 -7 -100 -7 -215 l0 -208 30 0 c35 0 39 10 42 115
l3 70 31 3 c54 5 74 -22 81 -111 6 -77 6 -77 34 -77 l29 0 0 67 c0 47 -6 79
-21 110 l-21 43 21 26 c23 30 29 101 10 136 -6 11 -26 26 -44 34 -35 14 -176
20 -188 7z m163 -63 c24 -24 26 -67 4 -98 -12 -17 -25 -22 -60 -22 l-44 0 0
70 0 70 40 0 c27 0 47 -7 60 -20z"/>
<path d="M8830 6536 l0 -216 30 0 30 0 0 73 c0 76 22 125 51 115 7 -2 30 -45
50 -94 37 -87 38 -89 73 -92 20 -2 36 -1 36 1 0 2 -25 59 -55 126 -30 67 -55
127 -55 133 0 5 23 42 50 82 28 40 50 75 50 79 0 14 -58 6 -71 -10 -8 -9 -34
-50 -59 -91 -25 -41 -49 -74 -55 -74 -5 1 -12 41 -15 89 -5 87 -5 88 -32 91
l-28 3 0 -215z"/>
<path d="M1755 6729 c-3 -8 -4 -230 -3 -494 l3 -480 75 0 75 0 5 200 5 200
100 6 c146 8 211 41 259 129 59 108 44 278 -32 362 -64 71 -101 81 -304 86
-144 3 -179 2 -183 -9z m325 -137 c52 -26 72 -72 68 -160 -3 -71 -5 -75 -41
-108 -37 -34 -39 -35 -115 -32 l-77 3 -3 145 c-1 79 0 150 2 157 8 20 123 17
166 -5z"/>
<path d="M2445 6729 c-3 -8 -4 -230 -3 -494 l3 -480 75 0 75 0 5 210 5 210 65
3 c73 2 103 -9 134 -51 18 -25 21 -48 27 -192 4 -89 10 -168 13 -174 4 -6 37
-11 78 -11 l71 0 -6 176 c-7 190 -18 235 -71 283 -33 31 -33 42 4 69 97 72
107 290 18 381 -63 65 -101 75 -305 79 -148 3 -184 2 -188 -9z m331 -135 c46
-22 64 -60 64 -134 0 -111 -47 -153 -167 -148 l-68 3 -3 134 c-1 74 0 141 2
148 8 19 130 17 172 -3z"/>
<path d="M3313 6724 c-13 -34 -220 -959 -216 -966 2 -5 36 -8 74 -8 51 0 71 4
75 14 3 8 15 63 27 123 l22 108 121 3 121 3 24 -123 25 -123 73 -3 c41 -2 77
1 81 5 6 7 -196 923 -214 969 -8 22 -204 20 -213 -2z m152 -348 c20 -107 35
-202 33 -213 -3 -15 -15 -18 -77 -21 -41 -2 -79 2 -84 7 -14 14 63 421 79 421
7 0 26 -76 49 -194z"/>
<path d="M4487 6733 c-4 -3 -7 -35 -7 -70 l0 -63 93 0 c50 0 98 -4 104 -8 10
-6 13 -106 15 -423 l3 -414 75 0 75 0 5 420 5 420 100 5 100 5 3 44 c2 25 1
55 -3 68 l-5 23 -279 0 c-153 0 -281 -3 -284 -7z"/>
<path d="M5175 6728 c-3 -7 -4 -229 -3 -493 l3 -480 75 0 75 0 0 490 0 490
-73 3 c-52 2 -74 -1 -77 -10z"/>
<path d="M6205 6728 c-3 -7 -4 -229 -3 -493 l3 -480 236 -3 c192 -2 238 0 242
11 3 8 8 39 12 70 l7 57 -173 2 -174 3 -3 141 c-2 109 1 144 11 152 8 7 70 13
158 14 l144 3 3 62 c4 76 12 72 -178 76 l-135 2 -3 114 c-2 75 1 118 9 127 9
11 46 14 166 14 l154 0 -3 68 -3 67 -233 3 c-181 2 -234 0 -237 -10z"/>
<path d="M7155 6651 c-110 -26 -212 -50 -227 -54 -26 -7 -28 -11 -28 -57 0
-38 4 -50 18 -54 9 -3 109 -25 222 -51 113 -25 213 -48 223 -51 14 -4 17 1 17
30 0 31 -4 36 -27 42 -97 22 -88 13 -88 85 l0 64 55 10 c54 11 55 12 58 48 2
26 -1 37 -10 36 -7 -1 -103 -22 -213 -48z m33 -73 c14 -14 16 -57 3 -76 -7
-12 -25 -10 -105 6 -94 19 -115 26 -104 37 3 4 132 34 189 44 3 1 10 -4 17
-11z"/>
<path d="M10808 6538 l-3 -83 -95 0 -95 0 -5 75 c-3 41 -9 75 -15 75 -5 0 -12
-34 -15 -75 l-5 -75 -80 0 -80 0 -3 78 c-2 56 -6 77 -15 74 -8 -2 -12 -32 -12
-93 l0 -89 228 -3 228 -2 -3 97 c-2 64 -7 98 -15 100 -9 3 -13 -19 -15 -79z"/>
<path d="M1437 6594 c-4 -4 -7 -69 -7 -145 0 -116 -2 -138 -16 -143 -9 -3 -76
-6 -149 -6 -108 0 -137 3 -149 16 -13 12 -16 40 -16 135 l0 120 -27 -3 -28 -3
-3 -125 c-2 -84 -7 -127 -15 -132 -18 -12 -225 -10 -248 2 -17 10 -19 22 -19
146 l0 135 -27 -3 -28 -3 -3 -172 c-2 -172 -2 -173 20 -178 13 -3 190 -4 393
-3 l370 3 0 180 c0 174 -1 180 -20 183 -12 2 -24 0 -28 -4z"/>
<path d="M10808 6258 l-3 -83 -95 0 -95 0 -3 73 c-2 55 -6 72 -17 72 -12 0
-15 -16 -15 -75 l0 -76 -82 3 -83 3 -3 78 c-2 56 -6 77 -15 74 -8 -2 -13 -35
-15 -95 l-3 -92 231 0 231 0 -3 97 c-2 64 -7 98 -15 100 -9 3 -13 -19 -15 -79z"/>
<path d="M7318 6238 l-3 -83 -75 0 -75 0 -5 75 c-5 73 -6 75 -32 78 l-27 3 -3
-78 -3 -78 -65 0 -65 0 -3 78 -3 77 -29 0 -30 0 0 -115 0 -115 240 0 240 0 0
120 0 120 -30 0 -29 0 -3 -82z"/>
<path d="M707 6123 c-4 -3 -7 -100 -7 -215 l0 -208 30 0 30 0 0 78 c0 47 5 83
12 90 9 9 104 12 365 12 l353 0 0 35 0 35 -359 0 c-318 0 -360 2 -365 16 -3 9
-6 49 -6 90 0 71 -1 74 -23 74 -13 0 -27 -3 -30 -7z"/>
<path d="M7580 5920 l0 -190 94 0 c91 0 106 5 106 36 0 2 -28 4 -63 4 -36 0
-68 5 -75 12 -7 7 -12 33 -12 58 0 25 5 51 12 58 7 7 36 12 65 12 46 0 53 3
53 20 0 17 -7 20 -53 20 -63 0 -77 11 -77 62 0 46 19 58 89 58 44 0 51 3 51
20 0 19 -7 20 -95 20 l-95 0 0 -190z"/>
<path d="M7844 6097 c-2 -7 -3 -91 -2 -187 3 -173 3 -175 26 -178 l22 -3 0
155 c0 220 13 209 55 -44 18 -102 23 -114 51 -108 15 3 23 28 45 141 15 76 31
145 36 155 5 10 10 -43 13 -138 5 -148 6 -155 26 -158 30 -4 34 18 34 188 0
188 -1 192 -54 188 l-41 -3 -21 -100 c-40 -195 -44 -196 -74 -25 -12 62 -23
117 -26 122 -8 13 -84 9 -90 -5z"/>
<path d="M8236 6095 c-9 -25 -7 -338 3 -353 5 -8 17 -12 27 -10 16 3 20 15 24
78 l5 75 54 7 c75 9 105 39 105 108 0 42 -5 55 -27 78 -24 24 -36 27 -106 30
-66 3 -79 1 -85 -13z m144 -45 c45 -45 10 -124 -53 -118 -31 3 -32 4 -35 57
-2 29 -1 60 2 67 8 21 63 17 86 -6z"/>
<path d="M8525 6098 c-3 -8 -4 -92 -3 -188 l3 -175 93 -3 c87 -3 92 -2 92 18
0 18 -6 20 -52 20 -29 0 -59 4 -65 8 -9 6 -13 55 -15 167 -3 157 -3 160 -26
163 -12 2 -24 -3 -27 -10z"/>
<path d="M8795 6086 c-13 -13 -29 -43 -35 -67 -16 -60 -8 -195 14 -237 32 -62
121 -77 173 -29 32 29 46 79 46 167 0 138 -34 190 -125 190 -38 0 -54 -5 -73
-24z m122 -43 c26 -39 26 -207 0 -246 -26 -40 -71 -38 -93 6 -22 41 -24 190
-4 227 26 49 70 55 97 13z"/>
<path d="M9030 6102 c0 -5 19 -53 42 -108 34 -80 44 -114 48 -179 5 -77 6 -80
30 -80 24 0 25 3 31 80 5 64 15 99 48 173 46 105 49 122 22 122 -25 0 -30 -8
-61 -95 -14 -38 -29 -70 -35 -69 -5 0 -24 36 -41 80 -26 69 -34 79 -57 82 -15
2 -27 -1 -27 -6z"/>
<path d="M9330 5920 l0 -190 95 0 c88 0 95 1 95 20 0 18 -7 20 -54 20 -82 0
-86 3 -86 70 0 66 4 70 81 70 42 0 49 3 49 20 0 16 -8 19 -62 22 l-63 3 -3 43
c-4 60 9 72 80 72 51 0 59 2 56 18 -3 14 -17 17 -96 20 l-92 3 0 -191z"/>
<path d="M9590 5921 l0 -191 25 0 c24 0 25 2 25 66 0 80 11 104 49 104 37 0
61 -28 61 -72 0 -70 10 -98 36 -98 23 0 24 4 24 58 0 38 -7 71 -20 96 -19 39
-19 39 0 64 30 37 27 102 -6 133 -22 21 -37 24 -110 28 l-84 3 0 -191z m150
129 c43 -43 10 -110 -54 -110 -22 0 -36 6 -40 16 -9 24 -7 73 4 95 14 25 64
25 90 -1z"/>
<path d="M9917 6090 c-32 -26 -44 -78 -25 -116 7 -16 38 -42 71 -61 68 -40 91
-70 81 -107 -13 -52 -84 -59 -106 -11 -8 18 -19 25 -39 25 -27 0 -28 -2 -18
-27 15 -40 27 -52 65 -62 49 -13 99 -3 129 27 20 19 25 35 25 73 0 55 -23 83
-106 128 -40 21 -49 31 -52 56 -3 36 6 50 36 59 18 6 28 1 49 -23 15 -17 35
-31 45 -31 26 0 23 36 -7 65 -32 33 -110 35 -148 5z"/>
<path d="M11007 6103 c-16 -15 -5 -33 19 -33 14 0 34 -5 45 -10 18 -10 19 -23
19 -170 l0 -160 25 0 25 0 2 162 3 163 30 9 c17 5 36 10 42 12 7 2 10 10 7 19
-5 12 -26 15 -108 15 -57 0 -106 -3 -109 -7z"/>
<path d="M11285 6098 c-3 -7 -4 -92 -3 -188 l3 -175 25 0 c24 0 25 3 30 80 5
76 6 80 30 83 46 5 64 -19 70 -95 5 -65 6 -68 30 -68 25 0 25 1 22 70 -3 46
-9 76 -20 88 -14 16 -14 21 6 56 29 51 28 93 -2 128 -22 25 -31 28 -105 31
-62 3 -82 1 -86 -10z m140 -42 c26 -19 26 -83 0 -103 -11 -7 -33 -13 -50 -11
-28 3 -30 6 -33 52 -2 27 -1 55 2 62 7 18 57 18 81 0z"/>
<path d="M11635 6098 c-4 -13 -85 -358 -85 -364 0 -2 11 -4 25 -4 19 0 26 6
31 28 14 67 20 73 72 70 47 -3 47 -3 58 -48 9 -38 15 -45 38 -48 32 -4 34 -17
-23 218 l-37 155 -37 3 c-24 2 -39 -1 -42 -10z m65 -137 c12 -63 12 -73 0 -81
-23 -15 -50 -12 -57 6 -9 25 17 156 30 151 7 -2 19 -36 27 -76z"/>
<path d="M11860 5920 l0 -190 63 0 c119 0 157 48 157 198 0 76 -3 94 -23 123
-31 46 -61 59 -134 59 l-63 0 0 -190z m135 126 c29 -29 39 -79 32 -157 -6 -68
-26 -106 -62 -115 -52 -13 -55 -6 -55 139 0 138 5 157 42 157 11 0 30 -11 43
-24z"/>
<path d="M12160 5920 l0 -191 92 3 c79 3 93 6 96 21 3 14 -5 17 -51 17 -83 0
-87 3 -87 70 0 66 4 70 82 70 42 0 49 3 46 18 -2 13 -16 18 -63 22 l-60 5 -3
43 c-4 59 9 72 74 72 47 0 54 2 54 20 0 19 -7 20 -90 20 l-90 0 0 -190z"/>
<path d="M10382 5993 c3 -31 4 -31 251 -88 164 -39 162 -41 -87 -95 -77 -17
-146 -36 -153 -42 -8 -6 -13 -21 -11 -32 3 -21 7 -21 227 -21 171 0 225 3 229
13 3 9 -41 12 -197 12 -276 0 -272 9 33 71 144 30 183 45 163 65 -6 6 -62 21
-249 64 -76 17 -138 36 -138 41 0 5 86 10 192 11 142 2 192 6 196 16 3 9 -47
12 -228 12 l-231 0 3 -27z"/>
<path d="M7186 5985 c-34 -18 -49 -35 -77 -90 -47 -90 -105 -119 -149 -75 -34
34 -20 79 30 95 15 5 20 15 20 41 0 38 -6 40 -55 20 -41 -17 -65 -60 -65 -116
0 -80 49 -130 127 -130 57 0 96 30 142 108 43 74 79 100 126 88 34 -9 59 -49
51 -81 -4 -15 -22 -35 -41 -47 -27 -15 -35 -26 -35 -49 0 -34 15 -37 65 -13
89 42 86 202 -4 249 -38 19 -98 19 -135 0z"/>
<path d="M3629 5496 c-98 -35 -152 -96 -195 -222 -26 -73 -28 -93 -32 -276 -5
-227 9 -325 60 -420 53 -100 130 -140 265 -141 133 0 216 51 269 168 13 28 26
69 30 93 l7 42 -85 0 -84 0 -13 -50 c-40 -157 -205 -151 -251 9 -6 20 -16 92
-22 159 -12 140 0 325 27 403 31 90 112 132 184 94 34 -17 70 -80 71 -122 0
-22 4 -23 86 -23 l87 0 -7 48 c-3 26 -20 75 -37 109 -33 69 -84 112 -154 132
-53 15 -161 13 -206 -3z"/>
<path d="M7920 5427 c0 -56 4 -86 10 -82 6 3 10 19 10 34 0 38 14 41 178 41
86 0 131 4 127 10 -4 6 -67 10 -156 10 -148 0 -149 0 -149 23 0 12 -5 29 -10
37 -7 10 -10 -13 -10 -73z"/>
<path d="M117 5493 c-3 -5 -26 -96 -51 -203 -26 -107 -49 -203 -52 -212 -4
-15 1 -18 29 -18 32 0 35 3 41 38 13 73 12 72 76 72 64 0 63 1 76 -72 6 -35 9
-38 40 -38 19 0 34 2 34 4 0 14 -92 395 -100 414 -8 17 -18 22 -49 22 -22 0
-42 -3 -44 -7z m58 -95 c19 -86 25 -116 25 -140 0 -26 -3 -28 -40 -28 -51 0
-51 6 -15 168 3 12 10 22 15 22 5 0 12 -10 15 -22z"/>
<path d="M417 5480 c-49 -39 -54 -124 -10 -172 10 -11 36 -29 58 -40 62 -31
95 -67 95 -103 0 -40 -27 -65 -69 -65 -26 0 -36 7 -52 35 -15 24 -28 35 -44
35 -32 0 -35 -9 -18 -52 36 -90 195 -91 238 -1 22 46 15 106 -17 140 -13 14
-45 36 -71 49 -26 14 -57 34 -67 44 -47 47 -2 128 56 102 13 -7 29 -23 34 -37
10 -26 52 -36 65 -15 10 16 -24 76 -51 89 -41 18 -118 14 -147 -9z"/>
<path d="M751 5486 c-49 -27 -65 -99 -36 -156 9 -18 40 -43 79 -65 77 -43 90
-57 90 -100 0 -47 -20 -67 -63 -63 -28 2 -40 10 -56 35 -21 34 -61 45 -71 19
-9 -22 23 -74 56 -91 59 -31 150 -13 184 37 21 30 20 106 -2 142 -9 16 -46 45
-82 65 -72 41 -96 74 -81 114 19 49 80 46 107 -4 11 -22 21 -29 37 -27 34 5
34 43 -2 78 -25 26 -37 30 -83 30 -29 -1 -64 -7 -77 -14z"/>
<path d="M1037 5493 c-4 -3 -7 -102 -7 -220 l0 -213 30 0 30 0 0 220 0 220
-23 0 c-13 0 -27 -3 -30 -7z"/>
<path d="M1231 5486 c-46 -26 -65 -95 -40 -150 11 -22 78 -76 95 -76 21 0 73
-54 79 -80 19 -88 -98 -113 -128 -27 -8 21 -55 23 -63 3 -9 -22 23 -74 56 -91
37 -19 103 -19 140 0 43 22 60 53 60 111 0 63 -19 89 -92 128 -75 41 -88 54
-88 92 0 72 72 88 106 23 10 -20 22 -29 39 -29 36 0 34 43 -4 81 -25 25 -37
29 -83 29 -29 -1 -64 -7 -77 -14z"/>
<path d="M1482 5473 c3 -25 8 -28 43 -31 22 -2 43 -9 47 -15 4 -7 8 -92 8
-189 l0 -178 30 0 30 0 2 188 3 187 25 3 c60 7 71 12 68 35 -3 21 -7 22 -131
25 l-128 3 3 -28z"/>
<path d="M1835 5491 c-3 -5 -26 -96 -50 -203 -25 -106 -48 -201 -51 -210 -4
-15 1 -18 26 -18 32 0 33 1 50 68 l11 42 59 0 c64 0 63 1 76 -72 6 -35 9 -38
40 -38 31 0 34 3 29 23 -74 315 -94 398 -100 407 -8 12 -82 13 -90 1z m60 -93
c19 -86 25 -116 25 -140 0 -26 -3 -28 -40 -28 -38 0 -40 1 -40 33 0 17 4 48 9
67 5 19 12 47 15 63 8 33 24 35 31 5z"/>
<path d="M2097 5494 c-4 -4 -7 -103 -7 -221 l0 -213 30 0 30 0 0 156 c0 111 3
155 11 152 6 -2 36 -72 66 -156 l55 -152 39 0 39 0 -2 218 -3 217 -25 0 -25 0
-3 -147 c-1 -82 -6 -148 -11 -148 -4 0 -32 66 -63 148 l-55 147 -34 3 c-19 2
-38 0 -42 -4z"/>
<path d="M2427 5493 c-13 -12 -7 -41 9 -47 9 -3 31 -6 50 -6 l34 0 0 -191 0
-190 33 3 32 3 3 187 2 187 43 3 c38 3 42 6 45 31 l3 27 -124 0 c-68 0 -127
-3 -130 -7z"/>
<path d="M4355 5488 c-10 -26 -235 -1007 -235 -1023 0 -13 12 -15 83 -13 l82
3 25 120 c14 66 29 126 33 133 6 8 44 12 127 12 140 0 129 9 154 -130 27 -146
22 -140 115 -140 44 0 82 4 85 8 5 8 -227 1013 -238 1031 -10 16 -225 15 -231
-1z m128 -190 c14 -57 77 -393 77 -409 0 -17 -9 -19 -89 -19 -50 0 -92 3 -95
8 -3 6 67 393 79 430 7 20 22 14 28 -10z"/>
<path d="M4946 5484 c-8 -20 -8 -998 0 -1018 5 -13 22 -16 85 -16 43 0 80 1
81 3 1 1 4 103 7 227 l6 225 70 -1 c83 0 122 -17 149 -63 17 -29 21 -60 26
-200 3 -91 9 -172 13 -178 9 -14 153 -19 160 -5 8 15 -12 359 -23 395 -6 21
-29 56 -51 78 -37 37 -49 59 -31 59 19 0 82 76 98 116 12 33 15 65 12 133 -4
77 -8 96 -34 137 -61 99 -143 124 -405 124 -134 0 -158 -2 -163 -16z m359
-138 c56 -24 77 -68 73 -153 -3 -64 -7 -76 -33 -103 -35 -37 -87 -52 -163 -48
l-57 3 -3 158 -3 157 76 0 c43 0 90 -6 110 -14z"/>
<path d="M5725 5488 c-3 -7 -4 -242 -3 -523 l3 -510 254 -3 c140 -1 258 1 263
6 5 5 11 38 15 75 l6 67 -187 0 -186 0 0 159 c0 136 2 160 16 165 9 3 85 6
170 6 l154 0 0 70 0 70 -167 2 -168 3 0 135 0 135 173 3 172 2 0 75 0 75 -255
0 c-195 0 -257 -3 -260 -12z"/>
<path d="M6405 5488 c-3 -7 -4 -242 -3 -523 l3 -510 262 -3 c297 -3 266 -12
279 90 l6 58 -188 2 -189 3 -3 150 c-2 132 -1 151 15 162 12 9 63 13 170 13
l153 0 0 70 0 70 -158 0 c-110 0 -162 4 -170 12 -13 13 -18 222 -6 252 5 14
31 16 181 16 l174 0 -3 73 -3 72 -258 3 c-201 2 -259 0 -262 -10z"/>
<path d="M7095 5489 c-3 -8 -4 -243 -3 -524 l3 -510 80 0 80 0 3 222 2 223 26
6 c35 9 130 -3 164 -21 44 -23 58 -78 65 -254 3 -88 10 -160 17 -168 7 -9 35
-13 84 -13 l73 0 -5 173 c-7 208 -18 258 -73 311 l-40 39 49 46 c36 35 52 59
64 100 45 154 -10 296 -137 352 -47 21 -71 23 -249 27 -161 4 -199 2 -203 -9z
m359 -144 c48 -23 71 -69 70 -140 0 -72 -22 -118 -66 -141 -35 -18 -133 -30
-172 -20 l-26 6 0 149 c0 81 3 151 7 154 13 14 155 7 187 -8z"/>
<path d="M2954 5479 c-67 -16 -88 -47 -92 -135 l-4 -74 176 0 176 0 0 55 c0
77 -21 122 -65 141 -46 19 -139 26 -191 13z m195 -73 c13 -12 21 -31 21 -53
l0 -33 -135 0 -135 0 0 34 c0 26 7 40 27 56 25 19 38 21 114 18 68 -2 91 -7
108 -22z"/>
<path d="M8467 5463 c-4 -3 -7 -96 -7 -205 l0 -198 85 0 c103 0 140 15 162 67
20 50 10 96 -29 127 l-31 24 26 32 c54 63 23 140 -61 154 -49 8 -137 8 -145
-1z m135 -23 c42 -12 58 -34 58 -77 0 -53 -21 -68 -92 -68 l-63 0 -3 69 c-4
89 12 100 100 76z m17 -181 c63 -22 80 -102 32 -150 -26 -26 -36 -29 -90 -29
l-61 0 0 88 c0 49 3 92 7 95 10 11 77 8 112 -4z"/>
<path d="M8817 5464 c-4 -4 -7 -83 -7 -176 l0 -168 28 -31 c24 -27 37 -33 84
-37 67 -5 121 17 137 56 7 18 11 87 9 190 -4 218 -21 219 -28 2 -3 -109 -9
-173 -18 -188 -27 -47 -110 -53 -148 -11 -17 18 -20 43 -24 192 -5 159 -11
193 -33 171z"/>
<path d="M9219 5456 c-50 -29 -62 -112 -21 -149 9 -8 48 -30 85 -48 76 -36 97
-59 97 -106 0 -87 -127 -111 -173 -33 -19 32 -47 40 -47 14 0 -26 54 -72 93
-79 90 -17 167 30 167 103 0 55 -27 84 -115 126 -99 47 -121 91 -70 141 36 37
80 33 119 -10 52 -56 82 -36 33 21 -20 23 -33 28 -83 31 -39 2 -68 -2 -85 -11z"/>
<path d="M9515 5458 c-3 -7 -4 -99 -3 -203 3 -172 5 -190 21 -193 16 -3 17 10
15 199 -2 151 -6 203 -15 207 -7 2 -15 -2 -18 -10z"/>
<path d="M9675 5458 c-3 -8 -4 -99 -3 -203 3 -172 5 -190 21 -193 16 -3 17 10
17 168 0 122 3 171 11 168 6 -2 47 -78 90 -168 74 -154 81 -165 106 -165 l28
0 2 190 c3 184 -2 225 -26 211 -7 -5 -11 -62 -11 -172 0 -90 -3 -164 -7 -164
-5 0 -46 75 -93 168 -68 134 -89 168 -108 170 -12 2 -24 -3 -27 -10z"/>
<path d="M10077 5463 c-4 -3 -7 -96 -7 -205 l0 -198 110 0 c67 0 110 4 110 10
0 6 -34 10 -83 10 -51 0 -88 5 -95 12 -12 12 -17 124 -6 152 5 13 22 16 84 16
75 0 108 11 74 24 -9 3 -46 6 -84 6 -76 0 -80 3 -80 75 0 74 2 75 96 75 68 0
84 3 84 15 0 12 -18 15 -98 15 -54 0 -102 -3 -105 -7z"/>
<path d="M10440 5463 c-65 -26 -82 -108 -32 -155 15 -15 50 -36 77 -48 73 -31
95 -55 95 -105 0 -48 -20 -71 -66 -81 -41 -8 -82 10 -102 46 -21 36 -57 42
-46 8 16 -56 76 -85 152 -74 67 9 102 46 102 106 0 56 -27 87 -110 123 -67 30
-93 58 -93 99 0 39 33 68 77 68 35 -1 57 -15 75 -47 14 -28 41 -30 41 -5 0 35
-45 65 -102 68 -29 2 -60 1 -68 -3z"/>
<path d="M10759 5456 c-50 -29 -62 -112 -21 -149 9 -8 48 -30 85 -48 76 -36
97 -59 97 -105 0 -51 -30 -79 -85 -79 -42 0 -51 4 -80 38 -34 39 -55 47 -55
21 0 -26 54 -72 93 -79 90 -17 167 30 167 103 0 54 -30 88 -106 122 -74 34
-104 61 -104 95 0 36 42 75 81 75 23 0 40 -9 65 -35 18 -19 37 -35 43 -35 18
0 12 28 -12 56 -20 23 -33 28 -83 31 -39 2 -68 -2 -85 -11z"/>
<path d="M7920 5223 l0 -73 165 0 c99 0 165 4 165 10 0 5 -35 10 -77 12 l-78
3 -3 53 c-4 69 -22 67 -22 -3 l0 -55 -65 0 -65 0 0 48 c0 26 -5 54 -10 62 -7
10 -10 -7 -10 -57z"/>
<path d="M3170 5137 c0 -70 -5 -77 -60 -77 -51 0 -60 9 -60 55 0 53 -8 75 -26
75 -9 0 -14 -17 -16 -57 -3 -52 -6 -59 -29 -67 -14 -5 -38 -6 -53 -2 -24 6
-26 10 -26 66 0 54 -2 60 -20 60 -20 0 -21 -5 -18 -87 l3 -88 170 0 170 0 0
90 c0 77 -2 90 -17 93 -16 3 -18 -5 -18 -61z"/>
<path d="M8070 5041 c-123 -32 -145 -40 -145 -56 0 -17 22 -25 155 -57 176
-42 170 -41 170 -28 0 5 -18 13 -41 16 -51 8 -69 26 -69 69 0 43 18 61 69 69
23 3 41 11 41 16 0 15 -22 11 -180 -29z m54 -27 c8 -22 7 -47 -3 -62 -7 -12
-21 -11 -85 3 -44 10 -76 22 -76 29 0 7 28 20 63 28 82 21 94 21 101 2z"/>
<path d="M3170 4886 c0 -61 -2 -66 -24 -72 -13 -3 -38 -4 -57 -2 -32 3 -34 5
-37 43 -4 62 -11 85 -27 85 -11 0 -15 -13 -15 -53 0 -60 -12 -77 -51 -77 -53
0 -59 8 -59 71 0 53 -2 59 -20 59 -20 0 -21 -5 -18 -87 l3 -88 170 0 170 0 0
90 c0 77 -2 90 -17 93 -16 3 -18 -5 -18 -62z"/>
<path d="M1470 4665 l0 -235 73 0 c55 0 80 5 105 20 66 40 80 144 28 199 -31
33 -32 36 -6 68 24 31 26 92 5 132 -18 36 -60 51 -141 51 l-64 0 0 -235z m160
187 c13 -10 23 -33 27 -59 5 -36 2 -45 -21 -68 -23 -23 -33 -26 -79 -23 l-52
3 -3 69 c-2 38 -1 75 2 83 8 20 99 17 126 -5z m17 -216 c42 -49 22 -158 -30
-172 -13 -3 -43 -4 -68 -2 l-44 3 -3 89 c-2 49 0 96 3 104 4 11 18 13 62 10
46 -4 61 -10 80 -32z"/>
<path d="M1848 4880 c-55 -42 -80 -179 -58 -309 10 -59 19 -81 44 -108 27 -30
38 -35 78 -35 101 0 133 61 133 247 -1 104 -4 126 -23 162 -12 23 -31 47 -41
53 -33 17 -106 12 -133 -10z m124 -32 c29 -33 40 -97 36 -208 -3 -75 -9 -115
-21 -138 -35 -66 -109 -63 -144 6 -26 54 -26 261 0 314 29 58 91 71 129 26z"/>
<path d="M2178 4885 c-15 -9 -31 -30 -38 -51 -24 -71 7 -128 95 -172 64 -32
90 -66 90 -119 0 -37 -5 -49 -28 -69 -47 -40 -109 -26 -133 31 -8 19 -21 35
-29 35 -30 0 -11 -60 29 -92 24 -20 115 -25 147 -8 28 16 49 63 49 112 -1 68
-27 101 -117 146 -52 27 -73 56 -73 103 0 29 6 43 26 58 15 12 33 21 40 21 28
0 63 -24 75 -51 6 -16 18 -29 25 -29 24 0 15 40 -15 71 -24 23 -38 29 -73 29
-24 -1 -55 -7 -70 -15z"/>
<path d="M2479 4871 c-24 -25 -29 -38 -29 -79 0 -62 20 -88 99 -131 73 -39 91
-62 91 -119 0 -86 -81 -122 -141 -63 -16 16 -29 37 -29 45 0 9 -7 16 -15 16
-26 0 -17 -49 14 -81 26 -25 37 -29 85 -29 47 0 61 4 88 29 30 26 33 35 33 84
0 71 -21 100 -107 150 -75 43 -97 77 -81 130 10 37 52 62 89 53 14 -4 34 -22
46 -41 11 -19 26 -35 34 -35 17 0 17 3 0 45 -18 42 -42 55 -101 55 -38 0 -52
-5 -76 -29z"/>
<path d="M9183 4866 c-20 -9 -41 -31 -55 -58 -19 -37 -23 -58 -23 -153 0 -98
3 -116 25 -160 21 -42 32 -52 67 -63 31 -10 51 -11 80 -3 76 21 102 78 102
226 1 107 -15 161 -57 199 -28 24 -98 30 -139 12z m86 -46 c10 -5 24 -24 32
-42 18 -43 19 -212 1 -254 -28 -67 -96 -61 -120 11 -9 27 -12 75 -10 144 3 98
5 104 31 127 31 27 40 28 66 14z"/>
<path d="M10035 4870 c-27 -11 -61 -49 -74 -83 -31 -80 -20 -266 17 -317 10
-14 38 -31 60 -38 75 -25 157 19 164 88 3 21 -2 26 -24 28 -23 3 -30 -2 -41
-31 -22 -52 -81 -55 -108 -5 -17 32 -24 194 -10 246 21 76 96 94 121 27 7 -19
17 -25 40 -25 34 0 36 8 13 57 -24 52 -100 78 -158 53z"/>
<path d="M8450 4650 l0 -220 30 0 30 0 0 84 c0 55 4 87 13 94 6 5 36 12 66 14
45 5 60 11 83 37 24 26 28 40 28 87 0 50 -3 59 -34 90 -34 34 -35 34 -125 34
l-91 0 0 -220z m156 162 c38 -25 41 -112 4 -132 -10 -5 -34 -10 -53 -10 -40 0
-47 11 -47 75 0 65 7 75 49 75 20 0 41 -4 47 -8z"/>
<path d="M8780 4649 l0 -220 28 3 c27 3 27 3 30 93 2 56 7 92 15 97 21 13 54
9 78 -11 21 -16 25 -31 29 -98 l5 -78 30 0 30 0 -3 80 c-3 60 -8 87 -23 108
l-20 28 25 30 c45 53 29 151 -29 177 -14 7 -64 12 -110 12 l-85 0 0 -221z
m160 161 c41 -22 31 -114 -15 -126 -12 -3 -36 -4 -51 -2 -27 3 -29 6 -32 57
-2 29 -1 60 2 67 6 16 68 19 96 4z"/>
<path d="M9496 4854 c-3 -9 -6 -91 -6 -184 0 -175 -2 -184 -45 -192 -12 -2
-21 -13 -23 -26 -3 -20 1 -22 41 -22 29 0 53 7 68 19 24 19 24 23 27 220 l3
201 -29 0 c-18 0 -32 -6 -36 -16z"/>
<path d="M9657 4863 c-10 -9 -8 -406 1 -421 6 -9 36 -12 113 -10 99 3 104 4
107 26 3 21 0 22 -61 22 -96 0 -97 1 -97 80 0 79 2 80 92 80 56 0 59 1 56 23
-3 20 -10 22 -73 27 l-70 5 0 60 0 60 73 3 c69 3 72 4 72 27 0 25 0 25 -103
25 -57 0 -107 -3 -110 -7z"/>
<path d="M10260 4846 c0 -22 5 -25 43 -28 l42 -3 6 -190 c3 -104 6 -191 7
-193 1 -2 14 -2 30 0 l27 3 5 190 5 190 48 3 c42 3 47 5 47 28 l0 24 -130 0
-130 0 0 -24z"/>
<path d="M7945 4805 c-20 -20 -25 -34 -25 -78 l0 -54 93 -5 c102 -5 250 4 227
15 -8 3 -44 8 -80 9 -63 3 -65 4 -68 31 -5 40 22 77 56 77 48 0 102 12 102 23
0 14 -118 1 -144 -16 -18 -12 -25 -11 -51 5 -42 25 -81 23 -110 -7z m111 -20
c19 -19 24 -34 22 -58 l-3 -32 -64 -3 c-68 -3 -81 4 -81 46 0 31 43 72 75 72
14 0 37 -11 51 -25z"/>
<path d="M2864 4666 c-12 -30 7 -36 117 -36 75 0 109 -4 107 -11 -2 -6 -53
-30 -113 -53 -105 -41 -110 -45 -113 -75 l-3 -31 175 0 c169 0 176 1 176 20 0
19 -7 20 -126 20 -90 0 -125 3 -122 12 2 6 58 32 124 57 115 45 119 48 119 76
l0 30 -168 3 c-140 2 -168 0 -173 -12z"/>
<path d="M7940 4572 c-16 -13 -22 -29 -22 -55 0 -44 15 -65 59 -84 43 -17 184
-17 228 1 59 25 74 88 30 131 -24 25 -55 33 -55 15 0 -5 6 -10 13 -10 24 0 49
-37 45 -67 -5 -47 -54 -65 -166 -61 -84 4 -95 6 -119 30 -33 33 -26 71 17 93
17 9 30 18 30 20 0 12 -40 3 -60 -13z"/>
<path d="M2603 4190 c-88 -28 -127 -121 -121 -289 3 -88 7 -114 28 -156 35
-70 76 -95 155 -95 79 0 120 25 155 95 23 46 25 61 25 180 0 120 -2 134 -25
180 -15 28 -39 57 -57 68 -38 22 -116 30 -160 17z m115 -83 c30 -32 45 -116
40 -218 -6 -102 -29 -159 -70 -173 -66 -23 -107 35 -115 165 -8 110 3 183 34
219 31 38 79 41 111 7z"/>
<path d="M9624 4181 c-78 -35 -116 -111 -135 -263 -16 -134 1 -273 43 -358 43
-85 92 -114 188 -114 73 1 99 11 148 57 57 54 75 121 80 293 5 171 -9 251 -56
319 -54 79 -174 108 -268 66z m124 -82 c63 -22 83 -89 83 -277 0 -157 -16
-229 -58 -261 -58 -47 -123 -14 -150 77 -13 43 -17 92 -17 197 1 171 18 229
74 257 19 10 35 18 36 18 1 0 15 -5 32 -11z"/>
<path d="M757 4183 c-4 -3 -7 -123 -7 -265 l0 -258 150 0 150 0 0 30 0 30 -92
0 c-51 0 -99 4 -106 9 -9 5 -12 30 -10 87 l3 79 93 3 92 3 0 34 0 34 -92 3
-93 3 0 70 0 70 98 3 97 3 0 34 0 35 -138 0 c-76 0 -142 -3 -145 -7z"/>
<path d="M1140 3925 l0 -265 40 0 40 0 0 227 c0 160 3 224 11 216 5 -5 26 -98
44 -204 47 -266 38 -241 87 -237 l42 3 33 165 c53 265 54 270 64 270 5 0 9
-91 9 -221 l0 -220 43 3 42 3 0 260 0 260 -70 0 -70 0 -17 -75 c-10 -41 -28
-121 -40 -178 -13 -57 -27 -103 -33 -103 -5 0 -24 74 -41 165 -17 90 -34 171
-37 180 -5 13 -22 16 -77 16 l-70 0 0 -265z"/>
<path d="M1720 3925 l0 -265 45 0 44 0 3 108 3 107 72 6 c116 11 167 57 167
154 0 64 -26 110 -79 135 -33 16 -62 20 -148 20 l-107 0 0 -265z m222 175 c24
-30 24 -100 -1 -131 -15 -19 -28 -23 -72 -24 l-54 0 -3 79 c-4 107 -3 110 60
104 38 -4 57 -12 70 -28z"/>
<path d="M2145 4177 c-3 -7 -4 -125 -3 -262 l3 -250 139 -3 c145 -3 155 0 156
41 0 15 -11 17 -93 17 -59 0 -97 4 -105 12 -9 9 -12 75 -12 235 l0 223 -40 0
c-24 0 -43 -5 -45 -13z"/>
<path d="M2890 4181 c0 -6 32 -81 70 -167 l70 -156 0 -99 0 -99 45 0 45 0 0
93 0 92 75 168 c41 92 75 170 75 173 0 2 -20 4 -44 4 l-45 0 -31 -82 c-17 -46
-37 -99 -44 -118 -7 -19 -18 -36 -23 -37 -6 -2 -30 49 -54 114 l-45 118 -47 3
c-28 2 -47 -1 -47 -7z"/>
<path d="M3340 3925 l0 -265 40 0 40 0 0 228 c1 160 4 222 11 209 6 -9 27
-111 47 -225 l37 -207 42 -3 c49 -4 40 -25 88 218 42 215 43 220 56 220 5 0 9
-91 9 -220 l0 -220 40 0 40 0 0 265 0 265 -70 0 c-38 0 -70 -2 -70 -4 0 -8
-71 -342 -76 -355 -11 -32 -25 13 -55 174 -17 93 -33 173 -35 177 -3 5 -36 8
-75 8 l-69 0 0 -265z"/>
<path d="M3920 3925 l0 -265 144 0 c141 0 144 0 150 23 3 12 6 25 6 30 0 4
-45 7 -100 7 -88 0 -100 2 -110 19 -12 23 -13 130 -2 148 5 8 41 13 97 15 l90
3 0 30 0 30 -90 3 c-56 2 -92 7 -97 15 -10 16 -10 108 0 124 5 8 42 13 102 15
l95 3 0 30 0 30 -142 3 -143 3 0 -266z"/>
<path d="M4310 3925 l0 -266 38 3 37 3 -3 181 c-4 174 2 212 25 181 5 -6 41
-92 79 -189 l69 -178 53 0 52 0 0 265 0 265 -40 0 -40 0 0 -187 c0 -139 -3
-184 -11 -176 -6 6 -44 90 -83 185 l-71 173 -52 3 -53 3 0 -266z"/>
<path d="M4740 4155 l0 -35 60 0 60 0 2 -227 3 -228 43 -3 42 -3 0 215 c0 118
3 221 6 230 5 12 21 16 65 16 l59 0 0 35 0 35 -170 0 -170 0 0 -35z"/>
<path d="M6975 4177 c-3 -6 -4 -170 -3 -362 l3 -350 124 -3 c116 -2 128 -1
177 23 62 30 105 88 126 168 21 83 17 299 -7 372 -25 77 -82 137 -147 153 -65
17 -267 16 -273 -1z m217 -87 c81 -23 116 -121 105 -299 -7 -118 -20 -163 -57
-204 -25 -28 -33 -31 -86 -32 l-59 0 -3 259 c-2 182 1 263 9 272 14 17 41 18
91 4z"/>
<path d="M7547 4183 c-4 -3 -7 -168 -7 -365 l0 -358 188 2 187 3 3 43 3 42
-118 0 c-65 0 -124 4 -131 8 -9 6 -12 37 -10 118 l3 109 115 5 115 5 3 47 3
47 -118 3 -118 3 0 95 0 95 123 3 122 3 0 49 0 50 -178 0 c-98 0 -182 -3 -185
-7z"/>
<path d="M7990 4183 c1 -4 40 -168 89 -363 l87 -355 74 0 75 0 87 345 c48 190
88 353 88 363 0 16 -8 18 -57 15 l-57 -3 -17 -75 c-9 -41 -35 -165 -58 -275
-50 -239 -51 -239 -62 -228 -4 4 -20 69 -34 143 -13 74 -39 203 -58 285 l-33
150 -62 3 c-34 2 -62 -1 -62 -5z"/>
<path d="M8585 4177 c-3 -6 -4 -170 -3 -362 l3 -350 185 0 185 0 3 43 3 42
-118 0 c-65 0 -124 4 -131 8 -9 6 -12 37 -10 118 l3 109 115 5 115 5 3 47 3
47 -118 3 -118 3 0 95 0 95 123 3 122 3 0 49 0 50 -180 0 c-136 0 -182 -3
-185 -13z"/>
<path d="M9070 3825 l0 -365 179 0 c177 0 179 0 185 23 3 12 6 32 6 45 0 21
-3 22 -109 22 -60 0 -116 3 -125 6 -14 5 -16 42 -16 304 0 164 -3 305 -6 314
-5 12 -20 16 -60 16 l-54 0 0 -365z"/>
<path d="M10080 3825 l0 -365 55 0 55 0 0 128 c0 174 -1 172 69 172 87 0 153
23 194 69 41 45 51 84 45 175 -5 81 -34 127 -102 161 -46 23 -61 25 -183 25
l-133 0 0 -365z m250 260 c16 -8 35 -25 41 -37 15 -29 15 -118 0 -147 -26 -48
-150 -71 -171 -32 -5 11 -10 59 -10 106 0 111 7 125 66 125 25 0 58 -7 74 -15z"/>
<path d="M10615 4177 c-3 -6 -4 -170 -3 -362 l3 -350 54 -3 53 -3 -2 298 c-2
164 -2 305 -1 313 5 43 23 -36 61 -270 22 -140 44 -273 48 -295 l8 -40 54 0
55 0 51 280 c62 341 57 317 69 313 6 -2 10 -110 10 -298 l0 -295 53 -3 52 -3
0 366 0 366 -87 -3 -88 -3 -50 -247 c-27 -136 -53 -250 -57 -253 -9 -9 -14 13
-38 155 -11 69 -30 176 -42 238 l-20 112 -89 0 c-63 0 -91 -4 -94 -13z"/>
<path d="M11335 4177 c-3 -6 -4 -170 -3 -362 l3 -350 185 0 185 0 3 43 3 42
-118 0 c-65 0 -124 4 -131 8 -9 6 -12 37 -10 118 l3 109 115 5 115 5 3 47 3
47 -118 3 -118 3 0 95 0 95 123 3 122 3 0 49 0 50 -180 0 c-136 0 -182 -3
-185 -13z"/>
<path d="M11820 3825 l0 -365 50 0 50 0 0 265 c0 149 4 265 9 265 11 0 4 17
106 -265 46 -126 86 -238 90 -247 6 -15 20 -18 71 -18 l64 0 0 365 0 365 -50
0 -50 0 0 -256 c0 -149 -4 -253 -9 -250 -5 3 -51 118 -102 256 l-93 250 -68 0
-68 0 0 -365z"/>
<path d="M12354 4176 c-3 -8 -4 -29 -2 -48 l3 -33 75 -5 75 -5 5 -310 5 -310
57 -3 58 -3 2 313 3 313 83 3 82 3 0 49 0 50 -220 0 c-180 0 -222 -3 -226 -14z"/>
<path d="M5787 4163 c-4 -3 -7 -48 -7 -100 0 -51 -1 -94 -2 -95 -2 -1 -109 -5
-238 -8 l-235 -5 0 -35 0 -35 273 -3 272 -2 0 135 0 135 -26 10 c-30 12 -29
12 -37 3z"/>
<path d="M6678 4033 l-3 -128 -140 0 -140 0 -3 118 c-3 117 -3 117 -27 117
-24 0 -24 0 -27 -117 l-3 -118 -122 -3 -123 -3 0 113 c0 120 -6 142 -36 136
-18 -3 -19 -14 -19 -153 l0 -150 348 -3 347 -2 0 160 0 160 -25 0 -24 0 -3
-127z"/>
<path d="M5778 3688 l-3 -103 -87 -3 -87 -3 -3 93 -3 93 -32 3 -32 3 -3 -93
-3 -93 -69 -3 c-49 -2 -72 1 -77 10 -5 7 -9 52 -9 101 l0 87 -29 0 c-17 0 -31
-6 -35 -16 -9 -23 -7 -247 2 -262 7 -9 68 -12 273 -10 l264 3 3 135 c2 118 0
136 -15 147 -9 7 -25 13 -35 13 -15 0 -18 -12 -20 -102z"/>
<path d="M6037 3734 c-9 -9 -9 -336 -1 -358 3 -9 14 -16 24 -16 24 0 30 19 30
96 l0 64 320 0 320 0 0 30 0 30 -317 2 -318 3 -5 75 c-4 66 -7 75 -25 78 -12
2 -24 0 -28 -4z"/>
<path d="M2134 3427 c-2 -7 -3 -116 -2 -242 l3 -230 104 0 c75 0 106 4 109 13
3 9 -16 12 -71 12 -111 0 -107 -4 -107 111 l0 98 78 3 c60 2 77 6 77 18 0 12
-17 16 -78 18 l-78 3 3 87 3 87 83 3 c64 2 82 6 82 17 0 20 -198 22 -206 2z"/>
<path d="M2436 3424 c-3 -9 -6 -114 -6 -234 0 -175 3 -220 14 -229 10 -8 16
-9 21 -2 3 6 6 93 5 193 -1 101 -1 189 -1 196 2 38 26 -8 97 -188 77 -197 98
-230 125 -203 5 5 8 111 7 244 -3 200 -5 234 -18 234 -13 0 -15 -28 -17 -185
-1 -102 -2 -191 -2 -198 -2 -32 -24 10 -91 180 -40 101 -77 189 -83 196 -13
17 -44 15 -51 -4z"/>
<path d="M2770 3425 c0 -11 12 -15 44 -15 24 0 48 -6 55 -13 7 -9 12 -90 13
-225 2 -133 7 -212 13 -212 6 0 11 79 13 212 1 135 6 216 13 225 7 7 31 13 55
13 32 0 44 4 44 15 0 13 -21 15 -125 15 -104 0 -125 -2 -125 -15z"/>
<path d="M3102 3198 l3 -243 85 -3 c91 -3 130 2 130 18 0 6 -34 10 -79 10
-104 0 -111 7 -111 108 0 42 4 82 8 89 4 7 38 13 82 15 59 2 75 6 75 18 0 12
-16 16 -75 18 -44 2 -78 8 -82 15 -11 18 -10 125 2 148 9 16 22 19 91 19 60 0
80 3 77 13 -3 8 -36 13 -106 15 l-102 3 2 -243z"/>
<path d="M3405 3429 c-3 -8 -4 -118 -3 -244 3 -197 5 -230 18 -230 12 0 16 20
18 111 3 126 4 127 82 117 61 -8 74 -31 78 -133 3 -66 8 -90 18 -94 22 -8 27
16 22 105 -4 62 -10 86 -27 110 l-23 31 23 24 c17 18 24 40 27 83 4 53 2 61
-25 91 -29 32 -34 34 -116 38 -68 4 -88 1 -92 -9z m170 -44 c33 -32 35 -110 5
-143 -22 -24 -77 -37 -115 -28 -24 6 -25 9 -25 95 0 48 3 91 7 94 3 4 28 7 55
7 39 0 54 -5 73 -25z"/>
<path d="M3744 3427 c-2 -7 -3 -116 -2 -242 3 -197 5 -230 18 -230 12 0 16 21
20 105 l5 105 63 6 c101 10 149 63 136 154 -7 53 -28 84 -69 101 -44 18 -164
19 -171 1z m150 -27 c61 -23 73 -133 20 -178 -21 -19 -36 -22 -78 -20 l-51 3
-3 89 c-2 49 -1 95 2 103 6 15 73 18 110 3z"/>
<path d="M4075 3429 c-3 -8 -4 -118 -3 -244 3 -197 5 -230 18 -230 12 0 16 20
18 107 3 123 8 131 80 121 63 -8 76 -30 81 -129 2 -55 8 -87 17 -95 21 -17 27
10 22 102 -4 62 -10 86 -27 110 l-22 30 25 30 c21 25 26 41 26 85 0 45 -5 59
-28 86 -27 30 -33 32 -115 36 -68 4 -88 1 -92 -9z m167 -39 c52 -41 42 -141
-17 -166 -36 -15 -73 -18 -99 -8 -13 5 -16 23 -16 93 0 48 3 91 7 94 15 16
101 7 125 -13z"/>
<path d="M4415 3428 c-3 -7 -4 -117 -3 -243 3 -197 5 -230 18 -230 13 0 15 33
15 239 0 183 -3 240 -12 243 -7 3 -15 -1 -18 -9z"/>
<path d="M4597 3419 c-38 -29 -52 -83 -35 -134 11 -33 25 -46 88 -85 93 -58
119 -99 101 -162 -25 -81 -133 -84 -166 -3 -16 37 -32 45 -41 21 -7 -19 21
-71 48 -90 30 -21 112 -21 148 1 36 21 50 52 50 111 0 65 -25 101 -98 140 -67
36 -102 73 -102 108 0 93 105 121 149 40 20 -35 35 -38 39 -8 2 14 -7 33 -27
52 -25 25 -37 30 -79 30 -35 0 -57 -6 -75 -21z"/>
<path d="M4886 3418 c-3 -13 -6 -116 -6 -229 0 -150 3 -210 13 -222 10 -15 27
-17 106 -15 65 2 96 7 99 16 3 9 -17 12 -76 12 -56 0 -83 4 -91 14 -8 9 -11
46 -9 103 l3 88 77 5 c75 5 99 13 84 28 -4 4 -42 9 -84 12 l-77 5 -3 73 c-2
46 2 79 9 88 8 10 35 14 91 14 59 0 79 3 76 13 -3 8 -36 13 -105 15 -97 3
-101 2 -107 -20z"/>
<path d="M5307 3403 c-9 -9 -8 -55 1 -70 4 -7 100 -33 212 -59 113 -25 209
-50 214 -55 12 -11 17 -9 -214 -59 -127 -27 -199 -47 -207 -58 -15 -19 -17
-68 -3 -77 5 -3 114 21 242 55 329 86 298 73 298 130 0 26 -6 52 -12 57 -11 8
-502 144 -519 143 -3 0 -9 -3 -12 -7z"/>
<path d="M6382 3302 c-313 -79 -343 -89 -349 -109 -3 -13 -3 -33 1 -46 5 -21
31 -29 333 -101 180 -44 336 -81 346 -84 13 -3 17 2 17 26 0 29 -2 30 -73 46
-40 9 -89 21 -110 27 l-37 10 0 99 c0 85 2 99 18 104 9 3 59 15 110 26 l92 22
0 34 c0 19 -1 34 -2 33 -2 0 -157 -40 -346 -87z m68 -132 c0 -73 -2 -80 -20
-80 -32 0 -304 62 -314 71 -5 5 -7 11 -5 14 7 7 289 73 317 74 21 1 22 -2 22
-79z"/>
<path d="M7035 3240 c-11 -4 -31 -20 -45 -35 -23 -25 -25 -35 -28 -141 l-4
-114 259 2 258 3 0 35 0 35 -110 5 -110 5 -3 42 c-5 63 17 80 115 88 43 3 85
7 93 8 9 1 16 15 18 36 l3 33 -105 -4 c-94 -3 -107 -5 -130 -27 l-26 -24 -22
21 c-42 38 -114 53 -163 32z m126 -89 c18 -14 23 -29 23 -67 l1 -49 -80 0 -80
0 -3 47 c-2 37 1 50 19 67 29 27 88 28 120 2z"/>
<path d="M7850 3222 c-41 -20 -60 -53 -60 -105 0 -60 23 -92 98 -136 82 -48
101 -68 109 -115 11 -67 -28 -116 -93 -116 -38 0 -64 18 -80 56 -8 19 -21 34
-29 34 -25 0 -17 -47 14 -82 28 -31 34 -33 95 -33 61 0 68 2 98 33 30 29 33
38 33 91 0 73 -20 103 -96 147 -85 49 -109 76 -109 122 0 49 24 80 67 88 27 5
37 2 60 -23 15 -16 33 -38 39 -48 9 -15 15 -17 24 -9 20 20 -14 82 -54 99 -46
19 -73 19 -116 -3z"/>
<path d="M8874 3226 c-72 -32 -98 -113 -92 -284 5 -127 16 -164 64 -201 30
-24 95 -28 133 -8 30 15 58 53 67 90 5 22 3 27 -13 27 -12 0 -25 -15 -38 -42
-24 -52 -58 -67 -103 -49 -47 20 -65 69 -70 192 -7 168 26 249 101 249 42 0
64 -16 77 -55 8 -24 18 -35 31 -35 10 0 19 5 19 10 0 21 -28 76 -48 93 -27 25
-89 31 -128 13z"/>
<path d="M8137 3223 c-4 -3 -7 -116 -7 -250 0 -235 1 -243 20 -243 18 0 20 8
22 108 l3 107 66 7 c107 10 144 48 144 144 0 57 -23 99 -66 121 -25 13 -171
18 -182 6z m158 -33 c33 -13 59 -72 51 -119 -8 -50 -44 -82 -100 -88 -69 -8
-76 2 -76 112 0 50 3 95 7 98 10 10 88 8 118 -3z"/>
<path d="M8480 2980 l0 -251 110 3 c137 4 152 22 22 26 l-93 3 3 107 3 107 83
3 c63 2 82 6 82 17 0 11 -19 15 -82 17 l-83 3 0 90 0 90 88 3 c68 2 87 6 87
17 0 12 -20 15 -110 15 l-110 0 0 -250z"/>
<path d="M9147 3223 c-4 -3 -7 -116 -7 -250 0 -236 1 -243 20 -243 19 0 20 7
20 250 0 202 -3 250 -13 250 -8 0 -17 -3 -20 -7z"/>
<path d="M9387 3223 c-11 -19 -119 -484 -114 -490 16 -15 35 10 46 63 21 93
22 94 101 94 l69 0 11 -42 c6 -24 16 -60 21 -80 7 -28 15 -38 29 -38 11 0 20
2 20 5 0 3 -28 115 -61 250 l-61 245 -29 0 c-15 0 -30 -3 -32 -7z m66 -168
c24 -101 25 -111 10 -122 -9 -7 -31 -13 -48 -13 -17 0 -39 6 -47 13 -15 11
-15 20 7 115 38 169 41 169 78 7z"/>
<path d="M9650 2980 l0 -250 110 0 c90 0 110 3 110 15 0 11 -19 15 -87 17
l-88 3 -3 233 c-2 224 -3 232 -22 232 -19 0 -20 -7 -20 -250z"/>
<path d="M9840 3215 c0 -11 12 -15 48 -15 26 0 53 -5 60 -12 9 -9 12 -75 12
-236 0 -207 1 -223 18 -220 15 3 17 24 22 233 l5 230 53 3 c37 2 52 7 52 18 0
11 -24 14 -135 14 -113 0 -135 -2 -135 -15z"/>
<path d="M10170 3227 c0 -3 29 -74 65 -157 65 -151 65 -152 65 -246 0 -87 1
-94 20 -94 19 0 20 7 20 100 l0 101 60 138 c33 76 60 144 60 151 0 6 -8 10
-17 8 -11 -2 -33 -42 -63 -118 -28 -69 -52 -115 -60 -115 -8 0 -32 46 -60 115
-37 93 -50 116 -68 118 -12 2 -22 1 -22 -1z"/>
<path d="M5778 2858 l-3 -103 -85 0 -85 0 -5 90 -5 90 -32 3 -32 3 -3 -93 -3
-93 -69 -3 c-49 -2 -72 1 -77 10 -5 7 -9 52 -9 101 l0 87 -29 0 c-17 0 -31 -6
-35 -16 -9 -23 -7 -247 2 -262 7 -9 68 -12 273 -10 l264 3 3 135 c2 118 0 136
-15 147 -9 7 -25 13 -35 13 -15 0 -18 -12 -20 -102z"/>
<path d="M7415 2858 c-3 -7 -6 -49 -7 -93 l-3 -80 -80 0 -80 0 -3 83 -3 82
-34 0 -34 0 -3 -82 -3 -83 -64 -3 c-45 -2 -67 1 -72 10 -5 7 -9 48 -9 91 l0
77 -30 0 -31 0 3 -127 3 -128 255 0 255 0 3 124 c3 129 0 140 -41 141 -10 0
-20 -6 -22 -12z"/>
<path d="M6125 2848 c-74 -41 -98 -104 -93 -249 l3 -84 348 -3 347 -2 0 30 0
30 -153 0 c-106 0 -157 4 -165 12 -18 18 -15 108 6 148 22 45 53 60 128 60 34
0 89 3 123 6 60 7 61 7 61 37 l0 30 -122 -6 c-138 -6 -173 -16 -205 -55 l-22
-27 -33 32 c-18 17 -43 36 -55 42 -28 14 -142 14 -168 -1z m172 -68 c40 -24
49 -42 58 -111 12 -95 6 -99 -133 -99 -79 0 -122 4 -130 12 -15 15 -16 105 -1
147 23 67 135 94 206 51z"/>
<path d="M3061 2712 c-22 -12 -47 -41 -72 -83 -51 -87 -63 -99 -102 -99 -69 0
-89 68 -30 105 25 16 32 27 33 53 0 36 -6 38 -55 18 -47 -20 -68 -65 -63 -133
5 -63 33 -98 88 -113 76 -20 133 17 186 122 30 59 75 85 121 67 34 -13 43 -26
43 -65 0 -31 -19 -55 -52 -67 -13 -4 -18 -17 -18 -42 0 -19 2 -35 5 -35 28 0
89 38 102 64 21 40 21 122 0 162 -31 59 -121 81 -186 46z"/>
<path d="M4913 2715 c-64 -28 -81 -119 -31 -172 13 -14 44 -36 70 -49 26 -13
54 -34 62 -46 53 -75 -41 -152 -96 -78 -15 21 -30 30 -50 30 -32 0 -31 2 -17
-38 29 -84 175 -94 226 -16 11 17 18 45 17 71 -1 52 -34 92 -106 129 -26 13
-55 36 -65 50 -15 24 -15 29 -2 53 11 20 22 26 49 26 28 0 37 -5 48 -27 17
-36 62 -40 62 -5 0 35 -27 65 -68 77 -47 13 -60 12 -99 -5z"/>
<path d="M3440 2509 l0 -211 79 3 c92 5 124 22 156 85 15 30 20 59 20 129 0
156 -43 205 -182 205 l-73 0 0 -211z m159 142 c26 -26 34 -76 29 -172 -4 -66
-9 -83 -29 -105 -18 -19 -31 -24 -59 -22 l-35 3 -3 145 c-1 79 0 150 2 157 8
20 73 16 95 -6z"/>
<path d="M3780 2540 l0 -182 28 -28 c56 -55 165 -48 202 13 18 28 20 51 20
205 l0 172 -30 0 -30 0 0 -161 c0 -155 -6 -193 -34 -211 -18 -12 -51 -9 -72 6
-17 13 -19 31 -24 188 l-5 173 -27 3 -28 3 0 -181z"/>
<path d="M4092 2698 c2 -19 10 -24 43 -26 22 -2 43 -9 47 -15 4 -7 8 -90 8
-185 l0 -173 28 3 27 3 5 180 5 180 43 3 c37 3 42 6 42 28 l0 24 -126 0 c-124
0 -125 0 -122 -22z"/>
<path d="M4410 2510 l0 -210 30 0 30 0 0 210 0 210 -30 0 -30 0 0 -210z"/>
<path d="M4570 2510 l0 -210 105 0 c105 0 105 0 105 25 0 23 -3 24 -72 27
l-73 3 -3 64 c-4 76 1 81 81 81 55 0 58 1 55 23 -3 20 -9 22 -71 25 l-68 3 3
57 3 57 70 5 c62 4 70 7 70 25 0 19 -8 20 -102 23 l-103 3 0 -211z"/>
<path d="M5780 2486 c0 -53 -1 -97 -2 -98 -2 -1 -109 -5 -238 -8 l-235 -5 -3
-28 c-7 -56 -3 -57 272 -57 138 0 257 4 264 8 9 7 12 42 10 143 l-3 134 -32 3
-33 3 0 -95z"/>
<path d="M8440 2518 c-78 -53 -56 -149 45 -200 62 -31 85 -57 85 -95 0 -68
-88 -83 -118 -20 -13 26 -54 38 -66 19 -11 -19 25 -73 58 -87 98 -41 186 5
186 96 0 58 -29 97 -94 127 -59 28 -76 47 -76 87 0 59 62 72 96 19 19 -27 64
-34 64 -8 0 71 -110 109 -180 62z"/>
<path d="M7790 2330 l0 -200 30 0 29 0 3 88 3 87 31 3 c54 5 76 -23 82 -106
l5 -72 30 0 30 0 -6 76 c-3 48 -11 82 -21 93 -21 23 -20 37 4 63 32 35 27 102
-9 139 -28 28 -33 29 -120 29 l-91 0 0 -200z m160 140 c23 -23 26 -68 7 -95
-10 -12 -28 -18 -58 -19 l-44 -1 -3 54 c-2 29 -1 60 2 67 8 22 73 17 96 -6z"/>
<path d="M8110 2330 l0 -200 104 0 c87 0 105 3 110 16 9 24 3 27 -77 33 l-72
6 -3 53 c-4 71 7 82 79 82 52 0 59 2 59 20 0 18 -7 20 -58 20 -32 0 -63 5 -70
12 -7 7 -12 31 -12 55 0 52 16 63 94 63 49 0 56 2 56 20 0 19 -7 20 -105 20
l-105 0 0 -200z"/>
<path d="M8707 2523 c-12 -11 -7 -296 6 -333 31 -90 196 -94 232 -6 11 26 15
77 15 191 l0 155 -29 0 -30 0 -3 -166 c-3 -150 -5 -167 -22 -180 -28 -20 -70
-17 -92 7 -17 18 -19 41 -22 180 -4 157 -4 159 -26 159 -13 0 -26 -3 -29 -7z"/>
<path d="M9050 2331 l0 -201 25 0 25 0 0 153 c0 145 9 206 24 160 5 -17 56
-296 56 -308 0 -3 14 -5 30 -5 17 0 30 3 30 8 1 30 62 308 70 316 7 7 10 -46
10 -157 l0 -167 30 0 30 0 0 200 0 200 -49 0 c-57 0 -51 12 -81 -145 -20 -100
-32 -136 -44 -124 -2 2 -15 63 -28 134 l-23 130 -53 3 -52 3 0 -200z"/>
<path d="M9474 2517 c-2 -7 -3 -96 -2 -197 l3 -185 103 -3 c87 -2 103 0 109
14 9 24 -15 34 -83 34 -69 0 -74 5 -74 68 0 57 12 66 82 72 47 4 63 9 63 20 0
11 -15 16 -60 18 -67 3 -85 17 -85 66 0 50 12 60 84 64 56 4 66 7 66 23 0 17
-9 19 -100 19 -73 0 -102 -4 -106 -13z"/>
<path d="M6962 2458 l3 -33 167 0 c92 0 170 -3 173 -7 10 -9 -20 -23 -172 -79
-182 -67 -173 -61 -173 -115 l0 -44 258 2 257 3 0 30 0 30 -189 5 c-139 4
-185 8 -175 16 8 6 88 37 179 69 91 32 171 63 178 68 6 5 12 27 12 48 l0 39
-261 0 -260 0 3 -32z"/>
<path d="M2780 2255 l0 -145 25 0 c26 0 31 12 37 75 l3 30 205 5 205 5 3 32 3
33 -208 2 -208 3 -3 30 c-6 63 -11 75 -37 75 l-25 0 0 -145z"/>
<path d="M6260 2370 c-141 -19 -209 -63 -230 -149 -22 -93 19 -171 111 -211
125 -53 385 -50 498 7 76 38 101 77 101 158 0 48 -5 70 -22 96 -56 84 -253
126 -458 99z m334 -80 c62 -19 96 -59 96 -113 0 -37 -6 -51 -29 -75 -46 -46
-104 -57 -291 -57 -148 0 -170 2 -212 22 -55 25 -80 59 -80 108 0 63 42 103
129 125 52 12 339 6 387 -10z"/>
<path d="M3204 2136 c-2 -6 -5 -42 -6 -81 l-3 -70 -207 -3 -208 -2 0 -35 0
-35 240 0 240 0 0 114 0 114 -26 5 c-14 2 -27 0 -30 -7z"/>
<path d="M6960 1955 l0 -155 30 0 c29 0 30 1 30 50 0 38 4 52 19 60 12 6 104
10 230 10 l211 0 0 35 0 35 -218 0 c-156 0 -221 3 -230 12 -7 7 -12 34 -12 60
0 47 -1 48 -30 48 l-30 0 0 -155z"/>
<path d="M6185 1870 c-59 -9 -105 -39 -129 -85 -17 -33 -20 -58 -21 -150 l0
-110 348 -3 347 -2 0 30 0 30 -149 0 c-170 0 -161 -6 -161 95 0 74 -11 110
-47 147 -39 41 -114 60 -188 48z m125 -75 c48 -25 80 -116 65 -185 l-7 -30
-139 0 -139 0 -6 26 c-11 42 2 124 23 152 11 15 31 33 44 39 33 18 124 16 159
-2z"/>
<path d="M2780 1775 l0 -35 174 0 c100 0 186 -5 205 -11 55 -19 68 -73 26
-114 -24 -25 -26 -25 -215 -25 l-190 0 0 -36 0 -35 209 3 c206 3 210 3 235 27
53 50 57 154 9 211 -35 42 -77 50 -275 50 l-178 0 0 -35z"/>
<path d="M7040 1737 c-19 -7 -44 -27 -57 -46 -20 -30 -23 -46 -23 -137 l0
-104 260 0 260 0 0 35 0 35 -99 0 c-55 0 -106 3 -115 6 -11 4 -16 19 -16 49 0
65 30 85 126 85 95 0 104 4 104 47 l0 35 -100 -4 c-83 -3 -104 -7 -129 -26
-32 -23 -51 -28 -51 -13 0 32 -105 57 -160 38z m103 -78 c46 -21 65 -109 28
-129 -21 -11 -110 -14 -135 -4 -12 4 -16 20 -16 54 0 41 4 52 26 69 30 23 61
26 97 10z"/>
<path d="M2891 1419 c-89 -27 -111 -64 -111 -189 l0 -90 238 2 237 3 3 73 c4
98 -19 152 -80 183 -35 18 -63 23 -148 25 -58 2 -120 -1 -139 -7z m210 -69
c37 -7 61 -18 77 -36 26 -30 30 -89 6 -98 -9 -3 -87 -6 -174 -6 -127 0 -160 3
-170 15 -16 19 -5 77 18 98 36 33 146 45 243 27z"/>
<path d="M6115 1361 c-16 -10 -38 -27 -48 -38 -23 -27 -38 -116 -35 -210 l3
-78 348 -3 347 -2 0 30 0 30 -153 0 c-106 0 -157 4 -165 12 -27 27 -8 151 28
183 19 17 127 31 263 34 24 1 27 5 27 33 l0 31 -125 -7 c-139 -7 -165 -14
-201 -53 l-24 -26 -33 30 c-47 45 -69 53 -139 53 -44 0 -72 -6 -93 -19z m182
-61 c40 -24 49 -42 58 -111 12 -95 6 -99 -133 -99 -79 0 -122 4 -130 12 -15
15 -16 105 -1 147 23 67 135 94 206 51z"/>
<path d="M7230 1324 c-124 -30 -235 -56 -247 -59 -20 -5 -23 -12 -23 -60 0
-42 4 -55 18 -59 83 -26 489 -113 495 -107 5 5 7 21 5 37 -3 26 -8 30 -63 42
-33 7 -63 18 -67 25 -13 20 -9 114 5 125 6 5 33 13 58 17 25 4 51 10 58 14 14
9 11 73 -4 77 -5 1 -111 -22 -235 -52z m48 -114 c4 -62 -3 -64 -118 -41 -57
12 -105 21 -107 21 -3 0 -3 6 -1 12 5 14 147 47 193 45 27 -2 30 -6 33 -37z"/>
<path d="M2998 1017 l-218 -52 0 -51 0 -52 138 -32 c75 -18 181 -42 234 -55
53 -12 100 -20 103 -17 3 3 5 18 5 33 0 29 -4 31 -70 44 -19 4 -41 12 -47 17
-14 11 -17 95 -5 115 4 6 32 17 62 25 51 12 55 15 58 46 4 42 7 42 -260 -21z
m70 -101 c4 -50 -4 -57 -53 -46 -22 4 -66 14 -98 20 -36 7 -57 16 -54 23 4 12
147 46 182 44 16 -2 21 -10 23 -41z"/>
<path d="M7023 1000 c-52 -31 -64 -66 -61 -178 l3 -97 235 -3 c129 -1 245 0
258 3 17 4 22 12 22 40 l0 35 -94 0 c-123 0 -126 1 -126 59 -1 62 -31 126 -69
145 -43 23 -128 21 -168 -4z m156 -86 c13 -17 21 -41 21 -65 0 -46 -13 -52
-110 -47 l-65 3 -3 44 c-5 62 24 91 89 91 39 0 51 -4 68 -26z"/>
<path d="M6252 889 c-90 -11 -129 -26 -172 -66 -68 -61 -75 -170 -15 -241 53
-63 205 -99 375 -88 157 10 250 47 285 116 24 45 20 140 -7 181 -57 85 -252
126 -466 98z m342 -80 c21 -7 51 -25 67 -40 24 -22 29 -35 29 -74 0 -62 -35
-96 -123 -120 -95 -25 -342 -18 -409 12 -55 25 -80 59 -80 108 0 63 42 103
129 125 54 13 339 5 387 -11z"/>
<path d="M6136 375 c-84 -30 -130 -117 -107 -202 23 -84 87 -129 227 -157 101
-20 178 -20 274 -1 97 20 159 52 188 95 21 30 23 45 20 108 -3 72 -5 75 -45
112 -43 41 -118 69 -135 52 -20 -20 -3 -47 37 -60 89 -28 123 -117 70 -180
-39 -47 -116 -65 -275 -66 -220 0 -310 40 -310 139 0 55 27 87 89 106 36 11
41 16 41 41 0 32 -13 35 -74 13z"/>
</g>
</svg>
